<?xml version="1.0" encoding="UTF-8"?>
<svg id="a" data-name="Calque 1" xmlns="http://www.w3.org/2000/svg" xmlns:xlink="http://www.w3.org/1999/xlink" viewBox="0 0 42.47 31.86">
  <defs>
    <clipPath id="b">
      <rect x="0" width="42.47" height="31.86" fill="#76b82a"/>
    </clipPath>
  </defs>
  <g>
    <rect x="0" width="42.47" height="31.86" fill="#76b82a"/>
    <g clip-path="url(#b)" fill="none">
      <rect x="0" y="0" width="42.47" height="31.85" fill="#76b82a"/>
      <rect x="0" y="0" width="42.47" height="31.85" fill="#76b82a"/>
    </g>
  </g>
  <polygon points="14.38 8.63 3.1 8.63 3.1 4.19 19.79 4.19 19.79 8.44 10.67 26.99 5.04 26.99 14.38 8.63" fill="#fff"/>
  <path d="m30.23,12.34c.51-.13,1.03-.23,1.58-.23,4.28,0,7.15,3.29,7.15,7.44,0,4.7-3.74,7.83-8.5,7.83s-8.5-3.12-8.5-7.83c0-3.29,1.29-5.28,2.74-7.57l4.99-7.8h5.89l-5.35,8.15Zm.23,3.45c-2.16,0-3.67,1.52-3.67,3.58s1.51,3.57,3.67,3.57,3.67-1.51,3.67-3.57-1.51-3.58-3.67-3.58" fill="#fff"/>
</svg>