<?xml version="1.0" encoding="UTF-8"?>
<svg id="a" data-name="Calque 1" xmlns="http://www.w3.org/2000/svg" xmlns:xlink="http://www.w3.org/1999/xlink" viewBox="0 0 42.47 31.86">
  <defs>
    <clipPath id="b">
      <rect width="42.47" height="31.86" fill="#00b1eb"/>
    </clipPath>
    <clipPath id="c">
      <rect y="0" width="42.47" height="31.86" fill="#00b1eb"/>
    </clipPath>
  </defs>
  <g>
    <rect width="42.47" height="31.86" fill="#00b1eb"/>
    <g clip-path="url(#b)" fill="none">
      <rect y="0" width="42.47" height="31.86" fill="#00b1eb"/>
      <g>
        <rect y="0" width="42.47" height="31.86" fill="#00b1eb"/>
        <g clip-path="url(#c)" fill="none">
          <path d="m30.37,12.35c.51-.13,1.03-.23,1.58-.23,4.28,0,7.15,3.28,7.15,7.44,0,4.7-3.74,7.83-8.5,7.83s-8.5-3.12-8.5-7.83c0-3.29,1.29-5.28,2.74-7.57l4.99-7.8h5.89l-5.35,8.15Zm.23,3.45c-2.16,0-3.67,1.51-3.67,3.58s1.51,3.58,3.67,3.58,3.67-1.51,3.67-3.58-1.51-3.58-3.67-3.58" fill="#fff"/>
        </g>
      </g>
    </g>
  </g>
  <polygon points="11.33 9.61 6.76 13.64 4.02 10.48 11.46 4.2 15.97 4.2 15.97 27.01 11.33 27.01 11.33 9.61" fill="#fff"/>
</svg>