<?xml version="1.0" encoding="UTF-8"?>
<svg id="d" data-name="Scolaires" xmlns="http://www.w3.org/2000/svg" viewBox="0 0 43.46 32.6">
  <rect width="43.46" height="32.6" fill="#e01744"/>
  <path d="m4.62,30.5l.92-1.11c.58.53,1.33.83,2.12.86.63,0,1.02-.25,1.02-.67h0c0-.39-.24-.6-1.42-.86-1.43-.42-2.35-.86-2.35-2.22h0c0-1.29,1.03-2.14,2.48-2.14.96-.02,1.89.3,2.63.9l-.81,1.18c-.53-.42-1.17-.67-1.84-.71-.6,0-.91.27-.91.62h0c0,.46.3.62,1.53.93,1.43.37,2.25.86,2.25,2.12h0c0,1.41-1.07,2.2-2.57,2.2-1.11.02-2.19-.37-3.04-1.1Z" fill="#fff"/>
  <path d="m13.08,25.89h-2.15v-1.44h5.87v1.44h-2.15v5.64h-1.56v-5.64Z" fill="#fff"/>
  <path d="m19.51,24.4h1.43l3.07,7.14h-1.63l-.64-1.59h-3l-.64,1.59h-1.62l3.04-7.14Zm1.64,4.17l-.94-2.3-.94,2.3h1.89Z" fill="#fff"/>
  <path d="m25.08,24.45h2.76c1.95-.13,3.63,1.35,3.76,3.29,0,.08,0,.15,0,.23h0c0,1.96-1.59,3.55-3.55,3.55h-2.97v-7.08Zm1.55,1.41v4.29h1.21c1.11.09,2.08-.73,2.18-1.84,0-.1,0-.19,0-.29h0c.06-1.12-.8-2.08-1.92-2.14h-.21l-1.25-.03Z" fill="#fff"/>
  <path d="m32.99,24.45h5.34v1.39h-3.79v1.43h3.34v1.39h-3.34v1.48h3.84v1.39h-5.4v-7.09Z" fill="#fff"/>
  <path d="m1.89,2.07h1.08l3.13,4.72V2.07h1.15v7.09h-1l-3.21-4.86v4.87h-1.16V2.07Z" fill="#fff"/>
  <path d="m10.85,2.02h1.16l2.57,7.13h-1.22l-.58-1.67h-2.75l-.59,1.67h-1.18l2.6-7.13Zm1.55,4.41l-1-2.84-1.01,2.84h2.02Z" fill="#fff"/>
  <path d="m14.27,2.07h1.28l1.72,5.34,1.72-5.34h1.24l-2.46,7.12h-1.04l-2.45-7.12Z" fill="#fff"/>
  <path d="m21.28,2.07h4.45v1.06h-3.28v1.92h2.91v1.06h-2.91v1.96h3.33v1.07h-4.5V2.07Z" fill="#fff"/>
  <path d="m28.44,3.16h-1.84v-1.09h4.89v1.09h-1.87v6h-1.18V3.16Z" fill="#fff"/>
  <path d="m33.99,3.16h-1.86v-1.09h4.91v1.09h-1.86v6h-1.18V3.16Z" fill="#fff"/>
  <path d="m38.11,2.07h4.46v1.06h-3.29v1.92h2.92v1.06h-2.92v1.96h3.33v1.07h-4.5V2.07Z" fill="#fff"/>
  <path d="m31.86,20.72v-1.54c.13-.7,1.53-1.16,2.68-1.07v-.33l-14.1-6.17-13.99,5.76.16.27c.72-.27,1.53-.04,2.02.55.13.22.2.47.21.73v1.9l11.73.86,12.39-.28h0l-1.09-.67Z" fill="#e01744"/>
  <path d="m31.86,20.72h-.05v-1.54h0c.07-.35.41-.63.86-.86.51-.2,1.04-.3,1.59-.3h.3v.05h-.05v-.3l-14.07-6.1-13.91,5.72.13.21h0v-.04c.19-.09.41-.13.62-.13.57-.02,1.12.24,1.48.69.13.23.2.48.21.75h0v1.89l11.64.86,12.39-.28v.05h0v.06l-1.12-.67h.05v-.05l1.11.67v.05l-12.43.27-11.78-.86v-1.99h0c0-.25-.08-.49-.2-.71-.34-.42-.85-.65-1.38-.63-.2,0-.39.03-.57.11h0l-.21-.37,14.07-5.78,14.17,6.19v.43h-.37c-.53,0-1.05.1-1.54.3-.44.19-.75.45-.8.74h0v1.54h-.06v-.05l-.06.09Z" fill="#fff"/>
  <polygon points="20.41 19.91 22.38 19.98 24.31 21.48 22.08 21.57 20.41 19.91" fill="#e01744"/>
  <polygon points="20.41 19.91 20.41 19.85 22.4 19.93 24.46 21.53 22.05 21.62 20.27 19.85 20.41 19.85 20.41 19.91 20.44 19.87 22.1 21.51 24.16 21.44 22.35 20.03 20.41 19.96 20.41 19.91 20.44 19.87 20.41 19.91" fill="#fff"/>
  <line x1="20.83" y1="20.31" x2="23.37" y2="20.35" fill="none"/>
  <polyline points="20.83 20.26 23.37 20.3 23.37 20.41 20.83 20.37" fill="#fff"/>
  <polyline points="21.28 20.71 23.95 20.71 23.95 20.82 21.28 20.82" fill="#fff"/>
  <line x1="21.73" y1="21.23" x2="24.43" y2="21.18" fill="none"/>
  <polyline points="21.73 21.17 24.43 21.13 24.43 21.23 21.73 21.28" fill="#fff"/>
  <polygon points="24.27 20.03 26.25 20.09 28.17 21.49 26.51 21.52 24.27 20.03" fill="#e01744"/>
  <polygon points="24.27 20.03 24.27 19.98 26.27 20.04 28.32 21.54 26.49 21.57 24.08 19.97 24.27 19.98 24.27 20.03 24.29 19.99 26.52 21.46 28.01 21.44 26.23 20.14 24.27 20.08 24.27 20.03 24.29 19.99 24.27 20.03" fill="#fff"/>
  <polyline points="24.74 20.31 26.63 20.31 26.63 20.42 24.74 20.42" fill="#fff"/>
  <line x1="25.29" y1="20.75" x2="27.13" y2="20.72" fill="none"/>
  <polyline points="25.29 20.7 27.13 20.66 27.14 20.77 25.29 20.8" fill="#fff"/>
  <line x1="25.83" y1="21.09" x2="27.68" y2="21.08" fill="none"/>
  <polyline points="25.83 21.04 27.68 21.02 27.68 21.14 25.83 21.14" fill="#fff"/>
  <polygon points="21.83 12.81 21.81 19.91 22.22 19.92 22.23 12.97 21.83 12.81" fill="#fff"/>
  <polygon points="18.77 12.81 18.78 21.53 18.37 21.5 18.37 12.99 18.77 12.81" fill="#fff"/>
  <polygon points="15.95 13.84 15.96 21.34 15.56 21.31 15.55 14.01 15.95 13.84" fill="#fff"/>
  <polygon points="13.48 14.87 13.48 21.15 13.09 21.13 13.07 15.02 13.48 14.87" fill="#fff"/>
  <polygon points="10.66 15.93 10.66 20.95 10.27 20.92 10.26 16.06 10.66 15.93" fill="#fff"/>
  <polygon points="24.57 13.78 24.57 19.99 24.98 19.99 24.96 13.93 24.57 13.78" fill="#fff"/>
  <polygon points="26.42 14.63 26.42 20.05 26.64 20.07 26.63 14.75 26.42 14.63" fill="#fff"/>
  <polygon points="28.78 15.71 28.79 20.16 29.11 20.13 29.1 15.81 28.78 15.71" fill="#fff"/>
  <polygon points="9.29 20.84 9.52 20.85 9.52 16.37 9.25 16.44 9.29 20.84" fill="#fff"/>
  <polygon points="23.51 19.99 23.28 19.98 23.28 13.33 23.55 13.46 23.51 19.99" fill="#fff"/>
  <polygon points="23.51 19.99 23.5 20.02 23.28 20 23.25 20 23.25 13.29 23.57 13.44 23.54 20.02 23.5 20.02 23.51 19.99 23.48 19.99 23.51 13.48 23.31 13.37 23.31 19.95 23.51 19.96 23.51 19.99 23.48 19.99 23.51 19.99" fill="#e01744"/>
  <polygon points="22.09 19.92 24.19 19.98 26.53 21.52 24.3 21.57 22.09 19.92" fill="#fff"/>
  <polygon points="26.21 20.04 29.11 20.1 31.27 21.42 28.25 21.49 26.21 20.04" fill="#fff"/>
  <polygon points="31.82 20.7 30.52 20.66 31.61 21.36 32.93 21.36 31.82 20.7" fill="#fff"/>
  <path d="m31.74,16.95v2.57h.11c-.01-.14,0-.29.05-.42.17-.79,1.72-1.08,2.68-1.02v-.15l-2.84-.98Z" fill="#fff"/>
  <path d="m8.82,18.87c-.11-.35-.3-.66-.56-.93-.47-.36-1.09-.47-1.65-.28l-.15-.24,2.38-.74-.02,2.19Z" fill="#fff"/>
  <path d="m8.82,18.87h-.05c-.12-.32-.3-.61-.53-.86-.45-.36-1.06-.46-1.6-.27h0l-.22-.33,2.51-.77v2.24h-.11v-2.11l-2.24.69.12.18h-.05v-.06c.19-.05.38-.08.57-.09.4,0,.8.14,1.12.39h0c.27.29.46.63.57,1h-.09Z" fill="#fff"/>
  <polygon points="6.78 17.42 20.39 11.9 34.17 17.99 20.38 12.23 6.78 17.42" fill="#fff"/>
  <polygon points="20.48 17.85 20.45 18.6 22.23 18.83 24.84 19.12 24.96 19.18 25.93 19.24 27.66 19.43 29.04 19.65 29.83 19.69 31.84 19.93 31.84 19.55 29.83 19.23 29.04 19.23 29.04 19.15 27.7 18.91 25.97 18.65 25 18.59 24.84 18.48 22.23 18.11 20.48 17.85" fill="#fff"/>
  <polygon points="14.55 19 15.57 19 18.02 18.81 19.65 18.68 20.48 18.62 20.48 17.88 19.69 17.88 18.05 18.08 15.53 18.37 15.53 18.51 14.55 18.49 11.62 18.83 11.62 18.91 10.88 18.9 8.87 19.15 8.87 19.51 10.9 19.34 11.62 19.33 14.55 19" fill="#fff"/>
  <polyline points="18.36 15.88 18.36 16.8 18.24 16.8 18.24 15.88" fill="#e01744"/>
  <polygon points="28.02 21.22 27.76 21.02 27.76 15.23 28.07 15.38 28.02 21.22" fill="#fff"/>
  <polygon points="30.33 20.6 30.07 20.44 30.07 16.24 30.34 16.34 30.33 20.6" fill="#fff"/>
  <polygon points="14.53 21.22 14.79 21.25 14.79 14.29 14.53 14.38 14.53 21.22" fill="#fff"/>
  <polygon points="16.6 21.35 16.85 21.37 16.85 13.53 16.6 13.62 16.6 21.35" fill="#fff"/>
  <polygon points="11.59 21.04 11.85 21.05 11.85 15.47 11.59 15.56 11.59 21.04" fill="#fff"/>
  <polygon points="20.45 21.64 20.27 21.64 20.28 12.18 20.49 12.18 20.45 21.64" fill="#fff"/>
  <rect x="6.36" y="11.55" width="28.24" height="10.17" fill="none"/>
</svg>