<?xml version="1.0" encoding="UTF-8"?>
<svg id="a" data-name="Calque 1" xmlns="http://www.w3.org/2000/svg" xmlns:xlink="http://www.w3.org/1999/xlink" viewBox="0 0 42.47 31.86">
  <defs>
    <clipPath id="b">
      <rect width="42.47" height="31.86" fill="#00a98b"/>
    </clipPath>
    <clipPath id="c">
      <rect y="0" width="42.47" height="31.86" fill="#00a98b"/>
    </clipPath>
  </defs>
  <rect width="42.47" height="31.86" fill="#00a98b"/>
  <g clip-path="url(#b)" fill="none">
    <g>
      <rect y="0" width="42.47" height="31.86" fill="#00a98b"/>
      <g clip-path="url(#c)" fill="none">
        <path d="m3.87,22.11l8.86-7.96c.9-.84,2.03-1.8,2.03-3.19,0-1.54-1.32-2.48-2.8-2.48-1.77,0-2.83,1.26-2.96,2.9l-4.83-.35c.29-4.7,3.58-6.99,8.05-6.99,4.15,0,7.38,2.29,7.38,6.86,0,2.93-1.26,4.61-3,6.12l-6.93,5.96h10.11v4.25H3.87v-5.12Z" fill="#fff"/>
        <path d="m30.9,4.04c6.76,0,8.47,6.38,8.47,11.79s-1.71,11.79-8.47,11.79-8.47-6.38-8.47-11.79,1.71-11.79,8.47-11.79m0,19.13c3.48,0,3.64-4.96,3.64-7.34s-.16-7.34-3.64-7.34-3.64,4.96-3.64,7.34.16,7.34,3.64,7.34" fill="#fff"/>
      </g>
    </g>
  </g>
</svg>