<?xml version="1.0" encoding="UTF-8"?>
<svg id="a" data-name="Calque 1" xmlns="http://www.w3.org/2000/svg" xmlns:xlink="http://www.w3.org/1999/xlink" viewBox="0 0 42.47 31.86">
  <defs>
    <clipPath id="b">
      <rect x="0" width="42.47" height="31.86" fill="#76b82a"/>
    </clipPath>
    <clipPath id="c">
      <rect x="0" y="0" width="42.47" height="31.86" fill="#76b82a"/>
    </clipPath>
  </defs>
  <rect x="0" width="42.47" height="31.86" fill="#76b82a"/>
  <g clip-path="url(#b)" fill="none">
    <rect x="0" y="0" width="42.47" height="31.85" fill="#76b82a"/>
    <g>
      <rect x="0" y="0" width="42.47" height="31.86" fill="#76b82a"/>
      <g clip-path="url(#c)" fill="none">
        <path d="m9.02,12.89h1.58c1.77,0,3.67-.39,3.67-2.55,0-1.38-1.26-2.38-2.83-2.38s-2.55.93-2.83,2.13l-5.31-1.09c1-3.96,4.25-5.48,8.12-5.48,4.06,0,7.7,1.97,7.7,6.35,0,2.51-1.39,4.48-3.9,4.99v.1c2.74.35,4.28,2.67,4.28,5.31,0,4.57-3.74,6.83-8.21,6.83-4.06,0-7.25-1.8-8.18-5.89l5.09-1.19c.32,1.61,1.32,2.64,3.38,2.64s3.09-1.22,3.09-2.93c0-2.58-2.35-2.64-4.51-2.64h-1.13v-4.19Z" fill="#fff"/>
        <path d="m22.72,21.59l8.86-7.96c.9-.84,2.03-1.8,2.03-3.19,0-1.55-1.32-2.48-2.8-2.48-1.77,0-2.83,1.26-2.96,2.9l-4.83-.35c.29-4.7,3.58-6.99,8.05-6.99,4.15,0,7.38,2.29,7.38,6.86,0,2.93-1.26,4.61-3,6.12l-6.93,5.96h10.12v4.25h-15.91v-5.12Z" fill="#fff"/>
      </g>
    </g>
  </g>
</svg>