<?xml version="1.0" encoding="UTF-8"?>
<svg id="a" data-name="Calque 1" xmlns="http://www.w3.org/2000/svg" xmlns:xlink="http://www.w3.org/1999/xlink" viewBox="0 0 42.47 31.86">
  <defs>
    <clipPath id="b">
      <rect width="42.47" height="31.86" fill="#00b1eb"/>
    </clipPath>
    <clipPath id="c">
      <rect y="0" width="42.47" height="31.86" fill="#00b1eb"/>
    </clipPath>
  </defs>
  <rect width="42.47" height="31.86" fill="#00b1eb"/>
  <g clip-path="url(#b)" fill="none">
    <rect y="0" width="42.47" height="31.85" fill="#00b1eb"/>
    <g>
      <rect y="0" width="42.47" height="31.86" fill="#00b1eb"/>
      <g clip-path="url(#c)" fill="none">
        <path d="m9.02,12.89h1.58c1.77,0,3.67-.39,3.67-2.55,0-1.38-1.26-2.38-2.83-2.38s-2.55.93-2.83,2.13l-5.31-1.09c1-3.96,4.25-5.48,8.12-5.48,4.06,0,7.7,1.97,7.7,6.35,0,2.51-1.39,4.48-3.9,4.99v.1c2.74.35,4.28,2.67,4.28,5.31,0,4.57-3.74,6.83-8.21,6.83-4.06,0-7.25-1.8-8.18-5.89l5.09-1.19c.32,1.61,1.32,2.64,3.38,2.64s3.09-1.22,3.09-2.93c0-2.58-2.35-2.64-4.51-2.64h-1.13v-4.19Z" fill="#fff"/>
        <path d="m30.96,18.56c-.51.13-1.03.23-1.58.23-4.28,0-7.15-3.29-7.15-7.44,0-4.7,3.74-7.83,8.5-7.83s8.5,3.12,8.5,7.83c0,3.29-1.29,5.28-2.74,7.57l-4.99,7.79h-5.9l5.35-8.15Zm-.22-3.45c2.16,0,3.67-1.51,3.67-3.58s-1.51-3.58-3.67-3.58-3.67,1.51-3.67,3.58,1.51,3.58,3.67,3.58" fill="#fff"/>
      </g>
    </g>
  </g>
</svg>