<?xml version="1.0" encoding="UTF-8"?>
<svg id="a" data-name="Calque 1" xmlns="http://www.w3.org/2000/svg" xmlns:xlink="http://www.w3.org/1999/xlink" viewBox="0 0 42.47 31.86">
  <defs>
    <clipPath id="b">
      <rect x="0" width="42.47" height="31.86" fill="#4a4a49"/>
    </clipPath>
    <clipPath id="c">
      <rect x="0" y="0" width="42.47" height="31.85" fill="#4a4a49"/>
    </clipPath>
  </defs>
  <rect x="0" width="42.47" height="31.86" fill="#4a4a49"/>
  <g clip-path="url(#b)" fill="none">
    <rect x="0" y="0" width="42.47" height="31.85" fill="#4a4a49"/>
    <g>
      <rect x="0" y="0" width="42.47" height="31.85" fill="#4a4a49"/>
      <g clip-path="url(#c)" fill="none">
        <path d="m18.66,8.46h-9.05l-.1,3.51c.55-.19,1.16-.26,2.03-.26,4.61,0,7.89,2.87,7.89,7.54,0,5.15-3.7,8.15-8.7,8.15-3.93,0-6.7-1.96-7.7-5.83l5.06-1.16c.26,1.64,1.45,2.74,3.12,2.74,2.06,0,3.38-1.45,3.38-3.41,0-3-2.74-3.77-5.25-3.77-1.58,0-3.22.32-4.73.84l.26-12.59h13.79v4.25Z" fill="#fff"/>
        <polygon points="30.36 9.61 25.79 13.64 23.05 10.48 30.49 4.2 35 4.2 35 27.01 30.36 27.01 30.36 9.61" fill="#fff"/>
      </g>
    </g>
  </g>
</svg>