<?xml version="1.0" encoding="UTF-8"?>
<svg id="a" data-name="Calque 1" xmlns="http://www.w3.org/2000/svg" xmlns:xlink="http://www.w3.org/1999/xlink" viewBox="0 0 42.47 31.86">
  <defs>
    <clipPath id="b">
      <rect width="42.47" height="31.86" fill="#76b82a"/>
    </clipPath>
    <clipPath id="c">
      <rect y="0" width="42.47" height="31.85" fill="#76b82a"/>
    </clipPath>
  </defs>
  <g>
    <rect width="42.47" height="31.86" fill="#76b82a"/>
    <g clip-path="url(#b)" fill="none">
      <rect y="0" width="42.47" height="31.85" fill="#76b82a"/>
      <g>
        <rect y="0" width="42.47" height="31.85" fill="#76b82a"/>
        <g clip-path="url(#c)" fill="none">
          <path d="m30.52,3.8c6.76,0,8.47,6.38,8.47,11.79s-1.71,11.79-8.47,11.79-8.47-6.38-8.47-11.79,1.71-11.79,8.47-11.79m0,19.13c3.48,0,3.64-4.96,3.64-7.34s-.16-7.34-3.64-7.34-3.64,4.96-3.64,7.34.16,7.34,3.64,7.34" fill="#fff"/>
        </g>
      </g>
    </g>
  </g>
  <polygon points="14.38 8.63 3.1 8.63 3.1 4.19 19.79 4.19 19.79 8.44 10.67 26.99 5.04 26.99 14.38 8.63" fill="#fff"/>
</svg>