<?xml version="1.0" encoding="UTF-8"?><svg id="Calque_1" xmlns="http://www.w3.org/2000/svg" viewBox="0 0 42.47 31.86"><rect y="0" width="42.47" height="31.86" style="fill:#76b82a; stroke-width:0px;"/><path d="m14.38,8.63H3.1v-4.45h16.69v4.25l-9.12,18.55h-5.64L14.38,8.63Z" style="fill:#fff; stroke-width:0px;"/><path d="m22.56,21.87l8.86-7.96c.9-.84,2.03-1.8,2.03-3.19,0-1.55-1.32-2.48-2.8-2.48-1.77,0-2.83,1.26-2.96,2.9l-4.83-.35c.29-4.7,3.58-6.99,8.05-6.99,4.16,0,7.38,2.29,7.38,6.86,0,2.93-1.26,4.61-3,6.12l-6.93,5.96h10.11v4.25h-15.91s0-5.12,0-5.12Z" style="fill:#fff; stroke-width:0px;"/></svg>