<?xml version="1.0" encoding="UTF-8"?>
<svg id="a" data-name="Calque 1" xmlns="http://www.w3.org/2000/svg" xmlns:xlink="http://www.w3.org/1999/xlink" viewBox="0 0 42.47 31.86">
  <defs>
    <clipPath id="b">
      <rect width="42.47" height="31.86" fill="#76b82a"/>
    </clipPath>
    <clipPath id="c">
      <rect y="0" width="42.47" height="31.85" fill="#76b82a"/>
    </clipPath>
  </defs>
  <g>
    <rect width="42.47" height="31.86" fill="#76b82a"/>
    <g clip-path="url(#b)" fill="none">
      <rect y="0" width="42.47" height="31.85" fill="#76b82a"/>
      <g>
        <rect y="0" width="42.47" height="31.85" fill="#76b82a"/>
        <g clip-path="url(#c)" fill="none">
          <path d="m37.64,8.44h-9.05l-.1,3.51c.55-.19,1.16-.26,2.03-.26,4.61,0,7.89,2.87,7.89,7.54,0,5.15-3.71,8.15-8.7,8.15-3.93,0-6.7-1.96-7.7-5.83l5.06-1.16c.26,1.64,1.45,2.74,3.12,2.74,2.06,0,3.38-1.45,3.38-3.41,0-3-2.74-3.77-5.25-3.77-1.58,0-3.22.32-4.73.84l.26-12.59h13.79v4.25Z" fill="#fff"/>
        </g>
      </g>
    </g>
  </g>
  <polygon points="14.38 8.63 3.1 8.63 3.1 4.19 19.79 4.19 19.79 8.44 10.67 26.99 5.03 26.99 14.38 8.63" fill="#fff"/>
</svg>