<?xml version="1.0" encoding="UTF-8"?><svg id="Calque_1" xmlns="http://www.w3.org/2000/svg" viewBox="0 0 42.47 31.86"><rect y="0" width="42.47" height="31.86" style="fill:#76b82a; stroke-width:0px;"/><path d="m14.9,8.5H3.63v-4.45h16.69v4.25l-9.12,18.55h-5.64L14.9,8.5Z" style="fill:#fff; stroke-width:0px;"/><path d="m31.33,18.71c-.52.13-1.03.23-1.58.23-4.28,0-7.15-3.29-7.15-7.44,0-4.7,3.74-7.83,8.5-7.83s8.5,3.12,8.5,7.83c0,3.29-1.29,5.28-2.74,7.57l-4.99,7.79h-5.89s5.35-8.15,5.35-8.15Zm-.23-3.45c2.16,0,3.67-1.51,3.67-3.58s-1.51-3.58-3.67-3.58-3.67,1.51-3.67,3.58,1.51,3.58,3.67,3.58Z" style="fill:#fff; stroke-width:0px;"/></svg>