<?xml version="1.0" encoding="UTF-8"?>
<svg id="a" data-name="Calque 1" xmlns="http://www.w3.org/2000/svg" xmlns:xlink="http://www.w3.org/1999/xlink" viewBox="0 0 42.47 31.86">
  <defs>
    <clipPath id="b">
      <rect width="42.47" height="31.86" fill="#76b82a"/>
    </clipPath>
    <clipPath id="c">
      <rect y="0" width="42.47" height="31.85" fill="#76b82a"/>
    </clipPath>
  </defs>
  <rect width="42.47" height="31.86" fill="#76b82a"/>
  <g clip-path="url(#b)" fill="none">
    <rect y="0" width="42.47" height="31.85" fill="#76b82a"/>
    <g>
      <rect y="0" width="42.47" height="31.85" fill="#76b82a"/>
      <g clip-path="url(#c)" fill="none">
        <path d="m11.45,3.8c4.19,0,7.63,2.09,7.63,6.28,0,2.48-1.42,4.35-3.86,5.06v.06c2.74.74,4.25,2.7,4.25,5.54,0,4.41-3.8,6.64-8.02,6.64s-8.02-2.22-8.02-6.64c0-2.84,1.51-4.8,4.25-5.54v-.06c-2.45-.71-3.86-2.58-3.86-5.06,0-4.19,3.45-6.28,7.63-6.28m0,19.13c1.9,0,3.19-1.29,3.19-2.87s-1.29-2.9-3.19-2.9-3.19,1.29-3.19,2.9,1.29,2.87,3.19,2.87m0-9.63c1.67,0,2.8-1.13,2.8-2.55s-1.13-2.51-2.8-2.51-2.8,1.13-2.8,2.51,1.13,2.55,2.8,2.55" fill="#fff"/>
        <path d="m37.64,8.44h-9.05l-.1,3.51c.55-.19,1.16-.26,2.03-.26,4.61,0,7.89,2.87,7.89,7.54,0,5.15-3.71,8.15-8.7,8.15-3.93,0-6.7-1.96-7.7-5.83l5.06-1.16c.26,1.64,1.45,2.74,3.12,2.74,2.06,0,3.38-1.45,3.38-3.41,0-3-2.74-3.77-5.25-3.77-1.58,0-3.22.32-4.73.84l.26-12.59h13.79v4.25Z" fill="#fff"/>
      </g>
    </g>
  </g>
</svg>