<?xml version="1.0" encoding="UTF-8"?>
<svg id="a" data-name="Calque 1" xmlns="http://www.w3.org/2000/svg" xmlns:xlink="http://www.w3.org/1999/xlink" viewBox="0 0 42.47 31.86">
  <defs>
    <clipPath id="b">
      <rect width="42.47" height="31.86" fill="#76b82a"/>
    </clipPath>
    <clipPath id="c">
      <rect y="0" width="42.47" height="31.85" fill="#76b82a"/>
    </clipPath>
  </defs>
  <rect width="42.47" height="31.86" fill="#76b82a"/>
  <g clip-path="url(#b)" fill="none">
    <rect y="0" width="42.47" height="31.85" fill="#76b82a"/>
    <g>
      <rect y="0" width="42.47" height="31.85" fill="#76b82a"/>
      <g clip-path="url(#c)" fill="none">
        <path d="m11.45,3.8c4.19,0,7.63,2.09,7.63,6.28,0,2.48-1.42,4.35-3.86,5.06v.06c2.74.74,4.25,2.7,4.25,5.54,0,4.41-3.8,6.64-8.02,6.64s-8.02-2.22-8.02-6.64c0-2.84,1.51-4.8,4.25-5.54v-.06c-2.45-.71-3.86-2.58-3.86-5.06,0-4.19,3.45-6.28,7.63-6.28m0,19.13c1.9,0,3.19-1.29,3.19-2.87s-1.29-2.9-3.19-2.9-3.19,1.29-3.19,2.9,1.29,2.87,3.19,2.87m0-9.63c1.68,0,2.8-1.13,2.8-2.55s-1.13-2.51-2.8-2.51-2.8,1.13-2.8,2.51,1.13,2.55,2.8,2.55" fill="#fff"/>
        <path d="m30.81,18.84c-.52.13-1.03.23-1.58.23-4.28,0-7.15-3.29-7.15-7.44,0-4.7,3.74-7.83,8.5-7.83s8.5,3.12,8.5,7.83c0,3.29-1.29,5.28-2.74,7.57l-4.99,7.79h-5.89l5.35-8.15Zm-.23-3.45c2.16,0,3.67-1.51,3.67-3.58s-1.51-3.58-3.67-3.58-3.67,1.51-3.67,3.58,1.51,3.58,3.67,3.58" fill="#fff"/>
      </g>
    </g>
  </g>
</svg>