<?xml version="1.0" encoding="UTF-8"?>
<svg id="a" data-name="Calque 1" xmlns="http://www.w3.org/2000/svg" xmlns:xlink="http://www.w3.org/1999/xlink" viewBox="0 0 42.47 31.86">
  <defs>
    <clipPath id="b">
      <rect width="42.47" height="31.86" fill="#76b82a"/>
    </clipPath>
    <clipPath id="c">
      <rect y="0" width="42.47" height="31.85" fill="#76b82a"/>
    </clipPath>
  </defs>
  <rect width="42.47" height="31.86" fill="#76b82a"/>
  <g clip-path="url(#b)" fill="none">
    <rect y="0" width="42.47" height="31.85" fill="#76b82a"/>
    <g>
      <rect y="0" width="42.47" height="31.85" fill="#76b82a"/>
      <g clip-path="url(#c)" fill="none">
        <path d="m11.74,18.84c-.52.13-1.03.23-1.58.23-4.28,0-7.15-3.29-7.15-7.44,0-4.7,3.74-7.83,8.5-7.83s8.5,3.12,8.5,7.83c0,3.29-1.29,5.28-2.74,7.57l-4.99,7.79h-5.89l5.35-8.15Zm-.23-3.45c2.16,0,3.67-1.51,3.67-3.58s-1.51-3.58-3.67-3.58-3.67,1.51-3.67,3.58,1.51,3.58,3.67,3.58" fill="#fff"/>
        <path d="m30.52,3.8c6.76,0,8.47,6.38,8.47,11.79s-1.71,11.79-8.47,11.79-8.47-6.38-8.47-11.79,1.71-11.79,8.47-11.79m0,19.13c3.48,0,3.64-4.96,3.64-7.34s-.16-7.34-3.64-7.34-3.64,4.96-3.64,7.34.16,7.34,3.64,7.34" fill="#fff"/>
      </g>
    </g>
  </g>
</svg>