<?xml version="1.0" encoding="UTF-8"?>
<svg viewBox="0 0 51.8 51.8" xmlns="http://www.w3.org/2000/svg">
<path d="M51.8,25.9A25.9,25.9,0,1,1,25.9,0,25.91,25.91,0,0,1,51.8,25.9" fill="#9260a0"/>
<path d="M15.7,11.5l3.5-.3c1.2-.1,2.6-.1,4.1-.1,5.1,0,8.9,1.3,11.5,3.8s4,6.3,4,11.3-1.3,8.8-4,11.2S28.1,41,22.8,41c-1.4,0-2.6,0-3.8-.1l-3.4-.3Zm5.9,24.3.9.1h1.4a12.67,12.67,0,0,0,3.4-.4A7.61,7.61,0,0,0,30.1,34,8.53,8.53,0,0,0,32,31a16.14,16.14,0,0,0,.7-4.9,15.5,15.5,0,0,0-.7-4.8,7.32,7.32,0,0,0-1.9-3,7.44,7.44,0,0,0-2.7-1.6,11.27,11.27,0,0,0-3.2-.5H22.9a5.7,5.7,0,0,0-1.3.1Z" fill="#fff"/>
</svg>
