<?xml version="1.0" encoding="UTF-8"?>
<svg id="a" data-name="Calque 1" xmlns="http://www.w3.org/2000/svg" xmlns:xlink="http://www.w3.org/1999/xlink" viewBox="0 0 42.47 31.86">
  <defs>
    <clipPath id="b">
      <rect x="0" width="42.47" height="31.86" fill="#00b1eb"/>
    </clipPath>
    <clipPath id="c">
      <rect y="0" width="42.47" height="31.86" fill="#00b1eb"/>
    </clipPath>
  </defs>
  <rect x="0" width="42.47" height="31.86" fill="#00b1eb"/>
  <g clip-path="url(#b)" fill="none">
    <rect y="0" width="42.47" height="31.85" fill="#00b1eb"/>
    <g>
      <rect y="0" width="42.47" height="31.86" fill="#00b1eb"/>
      <g clip-path="url(#c)" fill="none">
        <path d="m13.01,22.6l8.86-7.96c.9-.84,2.03-1.8,2.03-3.19,0-1.55-1.32-2.48-2.8-2.48-1.77,0-2.83,1.26-2.96,2.9l-4.83-.35c.29-4.7,3.58-6.99,8.05-6.99,4.15,0,7.38,2.29,7.38,6.86,0,2.93-1.26,4.6-3,6.12l-6.93,5.96h10.12v4.25h-15.91v-5.12Z" fill="#fff"/>
      </g>
    </g>
  </g>
</svg>