<?xml version="1.0" encoding="UTF-8"?>
<svg id="a" data-name="Calque 1" xmlns="http://www.w3.org/2000/svg" xmlns:xlink="http://www.w3.org/1999/xlink" viewBox="0 0 42.47 31.86">
  <defs>
    <clipPath id="b">
      <rect x="0" width="42.47" height="31.86" fill="#00b1eb"/>
    </clipPath>
    <clipPath id="c">
      <rect x="0" y="0" width="42.47" height="31.86" fill="#00b1eb"/>
    </clipPath>
  </defs>
  <rect x="0" width="42.47" height="31.86" fill="#00b1eb"/>
  <g clip-path="url(#b)" fill="none">
    <rect x="0" y="0" width="42.47" height="31.86" fill="#00b1eb"/>
    <g>
      <rect x="0" y="0" width="42.47" height="31.86" fill="#00b1eb"/>
      <g clip-path="url(#c)" fill="none">
        <path d="m21.53,18.86c-.52.13-1.03.22-1.58.22-4.28,0-7.15-3.28-7.15-7.44,0-4.7,3.74-7.83,8.5-7.83s8.5,3.12,8.5,7.83c0,3.29-1.29,5.28-2.74,7.57l-4.99,7.79h-5.89l5.35-8.15Zm-.23-3.45c2.16,0,3.67-1.51,3.67-3.57s-1.51-3.58-3.67-3.58-3.67,1.51-3.67,3.58,1.51,3.57,3.67,3.57" fill="#fff"/>
      </g>
    </g>
  </g>
</svg>