<svg id="Calque_1" data-name="Calque 1" xmlns="http://www.w3.org/2000/svg" viewBox="0 0 56.69 42.52"><defs><style>.cls-1{fill:#93c022;}.cls-2{fill:#fff;}.cls-3{fill:#d05396;}</style></defs><rect class="cls-1" x="0.07" width="56.69" height="42.52"/><path class="cls-2" d="M2.1,3.33c.23,0,.48-.06.77-.08s.66,0,1.1,0a6.21,6.21,0,0,1,1.08.09,2.69,2.69,0,0,1,.89.32,1.72,1.72,0,0,1,.6.6,1.85,1.85,0,0,1,.22.93,2.06,2.06,0,0,1-.1.62,1.83,1.83,0,0,1-.27.5A1.73,1.73,0,0,1,6,6.63a1.07,1.07,0,0,1-.43.18A2,2,0,0,1,6.12,7a1.82,1.82,0,0,1,.54.34,1.7,1.7,0,0,1,.42.58,2,2,0,0,1,.16.85A2.17,2.17,0,0,1,7,9.83a1.88,1.88,0,0,1-.69.68,2.82,2.82,0,0,1-1,.34,6.51,6.51,0,0,1-1.19.1c-.32,0-.63,0-.94,0s-.67-.05-1.07-.1Zm2,3a2.36,2.36,0,0,0,.48,0,1,1,0,0,0,.39-.16.71.71,0,0,0,.26-.33,1.08,1.08,0,0,0,.1-.51,1.06,1.06,0,0,0-.11-.5.9.9,0,0,0-.28-.3,1,1,0,0,0-.39-.14,2,2,0,0,0-.42,0,3.38,3.38,0,0,0-.49,0v2ZM3.61,9.68l.34,0H4.3a3.73,3.73,0,0,0,.46,0,1.29,1.29,0,0,0,.44-.16,1,1,0,0,0,.35-.34,1,1,0,0,0,.13-.55,1.21,1.21,0,0,0-.1-.54.83.83,0,0,0-.3-.34,1.11,1.11,0,0,0-.46-.18,2.58,2.58,0,0,0-.58-.06H3.61Z"/><path class="cls-2" d="M8.34,3.34l.38,0h.75l.39,0V7.22c0,.43,0,.79,0,1.09a2.41,2.41,0,0,0,.19.75.87.87,0,0,0,.39.43,1.3,1.3,0,0,0,.67.15,1.25,1.25,0,0,0,.65-.15.87.87,0,0,0,.39-.43,2.41,2.41,0,0,0,.19-.75c0-.3,0-.66,0-1.09V3.34l.39,0h.74l.39,0v4.2a7.42,7.42,0,0,1-.12,1.39A2.63,2.63,0,0,1,13.38,10a2,2,0,0,1-.86.69,3.39,3.39,0,0,1-1.37.25,3.4,3.4,0,0,1-1.38-.25A2,2,0,0,1,8.91,10a2.63,2.63,0,0,1-.45-1.08,7.42,7.42,0,0,1-.12-1.39Z"/><path class="cls-2" d="M16.72,7.36a4.61,4.61,0,0,1-.63-.3,1.83,1.83,0,0,1-.48-.38,1.78,1.78,0,0,1-.31-.54,2.37,2.37,0,0,1-.11-.75,2.16,2.16,0,0,1,.19-.94,1.91,1.91,0,0,1,.51-.68,2.24,2.24,0,0,1,.8-.41,3.42,3.42,0,0,1,1-.14,5.24,5.24,0,0,1,1,.09,7.18,7.18,0,0,1,1,.27,3.72,3.72,0,0,1-.33,1.19l-.32-.13-.34-.1-.42-.07a3.94,3.94,0,0,0-.52,0l-.35,0a1.07,1.07,0,0,0-.33.12.69.69,0,0,0-.24.24.88.88,0,0,0-.1.43.71.71,0,0,0,.08.34.59.59,0,0,0,.2.24,1.1,1.1,0,0,0,.28.17l.31.13.62.24A6.17,6.17,0,0,1,19,6.7a1.93,1.93,0,0,1,.55.41,1.86,1.86,0,0,1,.35.6,2.6,2.6,0,0,1,.12.85,2.33,2.33,0,0,1-.19,1,2.17,2.17,0,0,1-.56.75,2.59,2.59,0,0,1-.9.49,3.88,3.88,0,0,1-1.23.18l-.62,0L16,10.86l-.49-.12L15,10.56a3.79,3.79,0,0,1,.11-.63c.06-.22.12-.44.2-.66a5.22,5.22,0,0,0,.82.27,3.62,3.62,0,0,0,.82.09,1.89,1.89,0,0,0,1-.25.82.82,0,0,0,.38-.74.87.87,0,0,0-.09-.42A1,1,0,0,0,18,7.94a1.13,1.13,0,0,0-.32-.19l-.36-.15Z"/><path class="cls-2" d="M23.44,3.34l.86-.09c.27,0,.57,0,.89,0a6.09,6.09,0,0,1,1.13.1,3.05,3.05,0,0,1,1,.37,2.16,2.16,0,0,1,.72.72,2.2,2.2,0,0,1,.28,1.15,2.33,2.33,0,0,1-.11.73,2.64,2.64,0,0,1-.26.56,2.89,2.89,0,0,1-.35.41,3.36,3.36,0,0,1-.36.27l-.17.12,1.82,3.16-.44,0a3.62,3.62,0,0,1-.47,0,5.12,5.12,0,0,1-.78-.06L25.26,7.34l.25-.13L25.86,7a2.07,2.07,0,0,0,.4-.28,1.54,1.54,0,0,0,.33-.42,1.16,1.16,0,0,0,.13-.58,1.18,1.18,0,0,0-.37-1,1.5,1.5,0,0,0-1-.31,2.72,2.72,0,0,0-.42,0v6.31l-.37,0h-.74a3,3,0,0,1-.41,0Z"/><path class="cls-2" d="M29.73,3.34H34A2.73,2.73,0,0,1,34,4a2.81,2.81,0,0,1-.07.65H31.25V6.25h2.16a3.79,3.79,0,0,1,.07.65,3.5,3.5,0,0,1-.07.65H31.25v2h2.8a3.5,3.5,0,0,1,0,1.29H29.73Z"/><path class="cls-2" d="M35.25,3.34A4.91,4.91,0,0,1,36,3.28a5,5,0,0,1,.76.06V9.51h2.59c0,.12,0,.23,0,.34s0,.21,0,.31,0,.22,0,.32,0,.22,0,.34H35.25Z"/><path class="cls-2" d="M42.12,3.34l.42,0h.84l.44,0,2.34,7.48a5.9,5.9,0,0,1-.83.06,4.81,4.81,0,0,1-.77-.06l-.42-1.5H41.66l-.42,1.5a4.56,4.56,0,0,1-.72.06,4.77,4.77,0,0,1-.76-.06Zm1.67,4.72-.87-3.14L42,8.06Z"/><path class="cls-2" d="M47,3.34a5,5,0,0,1,.76-.06,5.09,5.09,0,0,1,.77.06v7.48a5.06,5.06,0,0,1-.76.06,5,5,0,0,1-.77-.06Z"/><path class="cls-2" d="M51.35,7.36a4.1,4.1,0,0,1-.63-.3,1.83,1.83,0,0,1-.48-.38,1.59,1.59,0,0,1-.31-.54,2.37,2.37,0,0,1-.11-.75A2.32,2.32,0,0,1,50,4.45a1.93,1.93,0,0,1,.52-.68,2.24,2.24,0,0,1,.8-.41,3.42,3.42,0,0,1,1-.14,5.13,5.13,0,0,1,1,.09,6.91,6.91,0,0,1,1,.27A3.74,3.74,0,0,1,54,4.77l-.31-.13-.35-.1-.41-.07a3.94,3.94,0,0,0-.52,0l-.36,0a1,1,0,0,0-.32.12.69.69,0,0,0-.24.24.78.78,0,0,0-.1.43.71.71,0,0,0,.08.34.57.57,0,0,0,.19.24,1.61,1.61,0,0,0,.28.17l.32.13.62.24c.26.1.5.21.72.32a2.08,2.08,0,0,1,.55.41,1.84,1.84,0,0,1,.34.6,2.34,2.34,0,0,1,.13.85,2.5,2.5,0,0,1-.19,1,2.17,2.17,0,0,1-.56.75,2.59,2.59,0,0,1-.9.49,3.88,3.88,0,0,1-1.23.18l-.62,0-.51-.07a3.89,3.89,0,0,1-.49-.12l-.5-.18a3.86,3.86,0,0,1,.12-.63,5.53,5.53,0,0,1,.2-.66,5.22,5.22,0,0,0,.82.27,3.55,3.55,0,0,0,.82.09,1.89,1.89,0,0,0,1-.25A.82.82,0,0,0,53,8.64a.87.87,0,0,0-.09-.42,1,1,0,0,0-.23-.28,1.29,1.29,0,0,0-.32-.19L52,7.6Z"/><path class="cls-3" d="M40.06,27.2A12.21,12.21,0,1,1,27.85,15,12.21,12.21,0,0,1,40.06,27.2"/><path class="cls-2" d="M32,31.25a6.63,6.63,0,0,1,.39,1,7.84,7.84,0,0,1,.23,1.07,9.09,9.09,0,0,1-1.7.46,11.68,11.68,0,0,1-1.62.11,6.88,6.88,0,0,1-2.7-.5A5.29,5.29,0,0,1,24.62,32a5.91,5.91,0,0,1-1.19-2.13,8.51,8.51,0,0,1-.4-2.68,8.38,8.38,0,0,1,.42-2.69,6.39,6.39,0,0,1,1.2-2.14A5.42,5.42,0,0,1,26.59,21a6.58,6.58,0,0,1,2.62-.5,10,10,0,0,1,1.6.11A6.89,6.89,0,0,1,32.4,21a4.35,4.35,0,0,1-.22,1.06c-.12.34-.25.69-.4,1a7.46,7.46,0,0,0-1.12-.31,6.59,6.59,0,0,0-1.16-.09,3.27,3.27,0,0,0-2.67,1.13,5.16,5.16,0,0,0-.94,3.36q0,4.43,3.75,4.42a6.83,6.83,0,0,0,1.18-.09A7,7,0,0,0,32,31.25"/></svg>