<?xml version="1.0" encoding="UTF-8"?>
<svg viewBox="0 0 22.23 12.76" xmlns="http://www.w3.org/2000/svg">
<rect width="22.23" height="12.76" rx="3.44" fill="#6cca98"/>
<path d="M8,9.19v.88H3.1a1.54,1.54,0,0,1,.11-.64,3.64,3.64,0,0,1,.6-1A9,9,0,0,1,5,7.31,10.41,10.41,0,0,0,6.66,5.72a1.86,1.86,0,0,0,.43-1.1A1.23,1.23,0,0,0,6.7,3.7a1.41,1.41,0,0,0-1-.37,1.44,1.44,0,0,0-1.06.39,1.51,1.51,0,0,0-.4,1.11l-.94-.1A2.27,2.27,0,0,1,4,3.12a2.49,2.49,0,0,1,1.7-.55,2.41,2.41,0,0,1,1.7.59A2,2,0,0,1,8,4.64a2.23,2.23,0,0,1-.18.88,3.59,3.59,0,0,1-.61.92A17.22,17.22,0,0,1,5.82,7.75c-.55.46-.9.78-1.06.94a3.14,3.14,0,0,0-.38.5Z" fill="#fff"/>
<path d="M8.76,6.38A6.94,6.94,0,0,1,9,4.25,2.69,2.69,0,0,1,9.85,3a2,2,0,0,1,1.35-.44,2.13,2.13,0,0,1,1.05.24,1.87,1.87,0,0,1,.75.7,4,4,0,0,1,.47,1.11,7.44,7.44,0,0,1,.16,1.76,7,7,0,0,1-.27,2.13,2.65,2.65,0,0,1-.8,1.25,2.09,2.09,0,0,1-1.36.44,2,2,0,0,1-1.7-.78A4.9,4.9,0,0,1,8.76,6.38Zm1,0a4.7,4.7,0,0,0,.43,2.45,1.23,1.23,0,0,0,1.68.44,1.32,1.32,0,0,0,.44-.44,4.7,4.7,0,0,0,.43-2.45,4.7,4.7,0,0,0-.43-2.45,1.26,1.26,0,0,0-1.07-.6,1.21,1.21,0,0,0-1,.53,4.69,4.69,0,0,0-.53,2.52Z" fill="#fff"/>
<path d="M19.13,9.19v.88H14.19a1.54,1.54,0,0,1,.11-.64,3.17,3.17,0,0,1,.6-1A9.85,9.85,0,0,1,16.1,7.3a10.35,10.35,0,0,0,1.65-1.59,1.86,1.86,0,0,0,.43-1.1,1.27,1.27,0,0,0-.39-.92,1.41,1.41,0,0,0-1-.37,1.44,1.44,0,0,0-1.06.39,1.52,1.52,0,0,0-.41,1.11l-.94-.1a2.35,2.35,0,0,1,.73-1.61,2.49,2.49,0,0,1,1.7-.55,2.41,2.41,0,0,1,1.7.59,2,2,0,0,1,.63,1.48,2.08,2.08,0,0,1-.19.88,3.35,3.35,0,0,1-.61.92,13.42,13.42,0,0,1-1.41,1.31c-.55.46-.9.78-1.06.94a2.69,2.69,0,0,0-.39.5Z" fill="#fff"/>
</svg>
