<?xml version="1.0" encoding="UTF-8"?>
<svg id="a" data-name="Calque 1" xmlns="http://www.w3.org/2000/svg" xmlns:xlink="http://www.w3.org/1999/xlink" viewBox="0 0 42.47 31.86">
  <defs>
    <clipPath id="b">
      <rect x="0" width="42.47" height="31.86" fill="#00a98b"/>
    </clipPath>
    <clipPath id="c">
      <rect x="0" y="0" width="42.47" height="31.86" fill="#00a98b"/>
    </clipPath>
  </defs>
  <rect x="0" width="42.47" height="31.86" fill="#00a98b"/>
  <g clip-path="url(#b)" fill="none">
    <rect x="0" y="0" width="42.47" height="31.85" fill="#00a98b"/>
    <g>
      <rect x="0" y="0" width="42.47" height="31.86" fill="#00a98b"/>
      <g clip-path="url(#c)" fill="none">
        <path d="m3.85,22.11l8.86-7.96c.9-.84,2.03-1.8,2.03-3.19,0-1.55-1.32-2.48-2.8-2.48-1.77,0-2.83,1.26-2.96,2.9l-4.83-.35c.29-4.7,3.58-6.99,8.05-6.99,4.15,0,7.38,2.29,7.38,6.86,0,2.93-1.26,4.61-3,6.12l-6.93,5.96h10.11v4.25H3.85v-5.12Z" fill="#fff"/>
        <path d="m30.59,12.57c.51-.13,1.03-.23,1.58-.23,4.28,0,7.15,3.29,7.15,7.44,0,4.7-3.74,7.83-8.5,7.83s-8.5-3.12-8.5-7.83c0-3.29,1.29-5.28,2.74-7.57l4.99-7.8h5.89l-5.35,8.15Zm.23,3.45c-2.16,0-3.67,1.52-3.67,3.58s1.51,3.57,3.67,3.57,3.67-1.51,3.67-3.57-1.51-3.58-3.67-3.58" fill="#fff"/>
      </g>
    </g>
  </g>
</svg>