<?xml version="1.0" encoding="UTF-8"?>
<svg id="a" data-name="Calque 1" xmlns="http://www.w3.org/2000/svg" xmlns:xlink="http://www.w3.org/1999/xlink" viewBox="0 0 42.47 31.86">
  <defs>
    <clipPath id="b">
      <rect width="42.47" height="31.86" fill="#76b82a"/>
    </clipPath>
    <clipPath id="c">
      <rect y="0" width="42.47" height="31.86" fill="#76b82a"/>
    </clipPath>
  </defs>
  <rect width="42.47" height="31.86" fill="#76b82a"/>
  <g clip-path="url(#b)" fill="none">
    <rect y="0" width="42.47" height="31.85" fill="#76b82a"/>
    <g>
      <rect y="0" width="42.47" height="31.86" fill="#76b82a"/>
      <g clip-path="url(#c)" fill="none">
        <path d="m9.24,12.89h1.58c1.77,0,3.67-.39,3.67-2.55,0-1.38-1.26-2.38-2.83-2.38s-2.55.93-2.83,2.13l-5.31-1.09c1-3.96,4.25-5.48,8.12-5.48,4.06,0,7.7,1.97,7.7,6.35,0,2.51-1.39,4.48-3.9,4.99v.1c2.74.35,4.28,2.67,4.28,5.31,0,4.57-3.74,6.83-8.21,6.83-4.06,0-7.25-1.8-8.18-5.89l5.09-1.19c.32,1.61,1.32,2.64,3.38,2.64s3.09-1.22,3.09-2.93c0-2.58-2.35-2.64-4.51-2.64h-1.13v-4.19Z" fill="#fff"/>
        <path d="m30.89,3.52c6.76,0,8.47,6.38,8.47,11.79s-1.71,11.79-8.47,11.79-8.47-6.38-8.47-11.79,1.71-11.79,8.47-11.79m0,19.13c3.48,0,3.64-4.96,3.64-7.34s-.16-7.34-3.64-7.34-3.64,4.96-3.64,7.34.16,7.34,3.64,7.34" fill="#fff"/>
      </g>
    </g>
  </g>
</svg>