<?xml version="1.0" encoding="UTF-8"?>
<svg viewBox="0 0 22.23 12.76" xmlns="http://www.w3.org/2000/svg">
<rect width="22.23" height="12.76" rx="3.44" fill="#718472"/>
<path d="M3.84,8.09,4.76,8A2.08,2.08,0,0,0,5.3,9.1a1.34,1.34,0,0,0,.93.34A1.52,1.52,0,0,0,7.77,7.89,1.42,1.42,0,0,0,6.39,6.43H6.3a2.84,2.84,0,0,0-.65.1l.11-.8H5.9A1.94,1.94,0,0,0,7,5.43a1,1,0,0,0,.47-.94,1.15,1.15,0,0,0-.34-.84,1.24,1.24,0,0,0-.88-.33,1.25,1.25,0,0,0-.9.34,1.69,1.69,0,0,0-.46,1L3.94,4.5A2.4,2.4,0,0,1,4.7,3.07a2.21,2.21,0,0,1,1.48-.5,2.34,2.34,0,0,1,1.13.26A1.86,1.86,0,0,1,8.37,4.51a1.62,1.62,0,0,1-.26.88A1.84,1.84,0,0,1,7.34,6a1.75,1.75,0,0,1,1,.63,1.89,1.89,0,0,1,.37,1.21A2.18,2.18,0,0,1,8,9.52a2.5,2.5,0,0,1-1.8.68,2.33,2.33,0,0,1-1.63-.59A2.27,2.27,0,0,1,3.84,8.09Z" fill="#fff"/>
<path d="M9.38,6.38a7,7,0,0,1,.28-2.13A2.69,2.69,0,0,1,10.47,3a2.06,2.06,0,0,1,1.35-.43,2.29,2.29,0,0,1,1.06.24,1.85,1.85,0,0,1,.74.7,3.51,3.51,0,0,1,.47,1.11,7.45,7.45,0,0,1,.17,1.76A6.6,6.6,0,0,1,14,8.5a2.55,2.55,0,0,1-.81,1.25,2,2,0,0,1-1.36.44,2,2,0,0,1-1.7-.77A4.92,4.92,0,0,1,9.38,6.38Zm.95,0a4.7,4.7,0,0,0,.43,2.45,1.23,1.23,0,0,0,1.68.44,1.32,1.32,0,0,0,.44-.44,4.7,4.7,0,0,0,.43-2.45,4.7,4.7,0,0,0-.43-2.45,1.29,1.29,0,0,0-1.07-.61,1.19,1.19,0,0,0-1,.54A4.87,4.87,0,0,0,10.33,6.38Z" fill="#fff"/>
<path d="M18.38,10.07h-.91V4.22a5,5,0,0,1-.87.63,6.13,6.13,0,0,1-1,.48V4.44A5.51,5.51,0,0,0,17,3.56a3.56,3.56,0,0,0,.81-1h.59Z" fill="#fff"/>
</svg>
