<?xml version="1.0" encoding="UTF-8"?>
<svg viewBox="0 0 22.23 12.76" xmlns="http://www.w3.org/2000/svg">
<rect width="22.23" height="12.76" rx="3.44" fill="#a65a2a"/>
<path d="M2.9,8.1,3.82,8a2,2,0,0,0,.54,1.1,1.3,1.3,0,0,0,.92.34A1.51,1.51,0,0,0,6.38,9a1.55,1.55,0,0,0,.44-1.11A1.4,1.4,0,0,0,5.41,6.48a2.84,2.84,0,0,0-.65.1l.1-.8H5a2,2,0,0,0,1-.35,1,1,0,0,0,.47-.94,1.11,1.11,0,0,0-.35-.84,1.2,1.2,0,0,0-.88-.33,1.23,1.23,0,0,0-.89.34,1.69,1.69,0,0,0-.46,1L3,4.5a2.41,2.41,0,0,1,.77-1.43,2.21,2.21,0,0,1,1.48-.5,2.34,2.34,0,0,1,1.13.26,1.89,1.89,0,0,1,.79.72,1.86,1.86,0,0,1,.27,1,1.62,1.62,0,0,1-.26.88A1.71,1.71,0,0,1,6.4,6a1.76,1.76,0,0,1,1,.64,1.91,1.91,0,0,1,.36,1.2A2.22,2.22,0,0,1,7.05,9.5a2.45,2.45,0,0,1-1.8.68,2.35,2.35,0,0,1-1.64-.59A2.24,2.24,0,0,1,2.9,8.1Z" fill="#fff"/>
<path d="M8.7,6.38A7,7,0,0,1,9,4.25,2.76,2.76,0,0,1,9.79,3a2.06,2.06,0,0,1,1.35-.43,2.17,2.17,0,0,1,1,.24,1.87,1.87,0,0,1,.75.7,4,4,0,0,1,.47,1.11,7.45,7.45,0,0,1,.17,1.76,6.68,6.68,0,0,1-.28,2.13,2.73,2.73,0,0,1-.8,1.25,2.09,2.09,0,0,1-1.36.44,2,2,0,0,1-1.7-.78A5,5,0,0,1,8.7,6.38Zm1,0a4.7,4.7,0,0,0,.43,2.45,1.23,1.23,0,0,0,1.68.44,1.32,1.32,0,0,0,.44-.44,4.7,4.7,0,0,0,.43-2.45,4.7,4.7,0,0,0-.43-2.45,1.26,1.26,0,0,0-1.07-.6,1.16,1.16,0,0,0-1,.53,4.69,4.69,0,0,0-.53,2.52Z" fill="#fff"/>
<path d="M19.33,9.19v.88H14.39a1.54,1.54,0,0,1,.11-.64,3,3,0,0,1,.6-1A9.17,9.17,0,0,1,16.3,7.3,10.59,10.59,0,0,0,18,5.72a1.86,1.86,0,0,0,.43-1.1A1.22,1.22,0,0,0,18,3.7a1.41,1.41,0,0,0-1-.37,1.44,1.44,0,0,0-1.06.39,1.49,1.49,0,0,0-.4,1.1l-.95-.09a2.35,2.35,0,0,1,.73-1.61A2.49,2.49,0,0,1,17,2.57a2.41,2.41,0,0,1,1.7.59,2,2,0,0,1,.63,1.48,2.23,2.23,0,0,1-.18.88,3.59,3.59,0,0,1-.61.92,17.62,17.62,0,0,1-1.42,1.31c-.55.46-.9.78-1.06.94a3.14,3.14,0,0,0-.38.5Z" fill="#fff"/>
</svg>
