<?xml version="1.0" encoding="UTF-8"?>
<svg viewBox="0 0 22.23 12.76" xmlns="http://www.w3.org/2000/svg">
<rect width="22.23" height="12.76" rx="3.44" fill="#daa900"/>
<path d="M3.12,8.1,4,8a2.1,2.1,0,0,0,.58,1.1,1.32,1.32,0,0,0,.93.34A1.52,1.52,0,0,0,7.05,7.89a1.38,1.38,0,0,0-.42-1,1.45,1.45,0,0,0-1-.41,2.84,2.84,0,0,0-.65.1l0-.85h.14A1.9,1.9,0,0,0,6.2,5.42a1,1,0,0,0,.47-.94,1.15,1.15,0,0,0-.34-.84,1.24,1.24,0,0,0-.88-.33,1.25,1.25,0,0,0-.9.34,1.69,1.69,0,0,0-.46,1L3.22,4.5A2.37,2.37,0,0,1,4,3.07a2.24,2.24,0,0,1,1.49-.5,2.31,2.31,0,0,1,1.12.26,1.85,1.85,0,0,1,1,1.68,1.62,1.62,0,0,1-.26.88A1.84,1.84,0,0,1,6.62,6a1.64,1.64,0,0,1,1,.64A1.91,1.91,0,0,1,8,7.86a2.21,2.21,0,0,1-.7,1.66,2.5,2.5,0,0,1-1.8.68A2.3,2.3,0,0,1,3.12,8.1Z" fill="#fff"/>
<path d="M8.66,6.38a7,7,0,0,1,.28-2.13A2.69,2.69,0,0,1,9.75,3a2.06,2.06,0,0,1,1.35-.43,2.29,2.29,0,0,1,1.06.24,1.94,1.94,0,0,1,.75.7,3.73,3.73,0,0,1,.46,1.11,7.45,7.45,0,0,1,.17,1.76,7,7,0,0,1-.27,2.13,2.71,2.71,0,0,1-.81,1.24,2,2,0,0,1-1.36.45,2,2,0,0,1-1.7-.78A4.93,4.93,0,0,1,8.66,6.38Zm.95,0A4.69,4.69,0,0,0,10,8.83a1.23,1.23,0,0,0,1.68.44,1.32,1.32,0,0,0,.44-.44,4.7,4.7,0,0,0,.43-2.45,4.7,4.7,0,0,0-.43-2.45,1.29,1.29,0,0,0-1.07-.61,1.19,1.19,0,0,0-1,.54A4.86,4.86,0,0,0,9.61,6.38Z" fill="#fff"/>
<path d="M14.21,8.1l.92-.1a2.1,2.1,0,0,0,.54,1.13,1.3,1.3,0,0,0,.92.34A1.5,1.5,0,0,0,17.69,9a1.55,1.55,0,0,0,.44-1.11,1.37,1.37,0,0,0-.41-1,1.45,1.45,0,0,0-1-.41,2.84,2.84,0,0,0-.65.1l.11-.8h.14a2,2,0,0,0,1.06-.31,1,1,0,0,0,.47-.94,1.15,1.15,0,0,0-.34-.84,1.34,1.34,0,0,0-1.78,0,1.69,1.69,0,0,0-.46,1l-.91-.17a2.4,2.4,0,0,1,.76-1.43,2.21,2.21,0,0,1,1.48-.5,2.34,2.34,0,0,1,1.13.26,1.86,1.86,0,0,1,1.06,1.68,1.62,1.62,0,0,1-.26.88,1.75,1.75,0,0,1-.77.63,1.64,1.64,0,0,1,1,.64,2,2,0,0,1,.37,1.2,2.18,2.18,0,0,1-.72,1.66,2.5,2.5,0,0,1-1.8.68A2.35,2.35,0,0,1,15,9.61,2.27,2.27,0,0,1,14.21,8.1Z" fill="#fff"/>
</svg>
