<?xml version="1.0" encoding="UTF-8"?><svg id="Calque_1" xmlns="http://www.w3.org/2000/svg" viewBox="0 0 42.47 31.86"><rect y="0" width="42.47" height="31.86" style="fill:#76b82a; stroke-width:0px;"/><path d="m9.25,12.89h1.58c1.77,0,3.67-.39,3.67-2.54,0-1.38-1.26-2.38-2.83-2.38s-2.54.93-2.83,2.13l-5.32-1.09c1-3.96,4.25-5.48,8.12-5.48,4.06,0,7.7,1.96,7.7,6.35,0,2.51-1.39,4.48-3.9,4.99v.1c2.74.35,4.28,2.67,4.28,5.31,0,4.57-3.74,6.83-8.21,6.83-4.06,0-7.25-1.8-8.18-5.89l5.09-1.19c.32,1.61,1.32,2.64,3.38,2.64s3.09-1.22,3.09-2.93c0-2.58-2.35-2.64-4.51-2.64h-1.13v-4.21Z" style="fill:#fff; stroke-width:0px;"/><path d="m33.83,8.35h-11.27V3.91h16.69v4.25l-9.12,18.55h-5.64s9.34-18.36,9.34-18.36Z" style="fill:#fff; stroke-width:0px;"/></svg>