<?xml version="1.0" encoding="UTF-8"?>
<svg viewBox="0 0 22.23 12.76" xmlns="http://www.w3.org/2000/svg">
<rect width="22.23" height="12.76" rx="3.44" fill="#007934"/>
<path d="M6.67,10.07V8.28H3.43V7.44L6.84,2.6h.75V7.44h1v.84h-1v1.79Zm0-2.63V4.07L4.33,7.44Z" fill="#fff"/>
<path d="M9.54,6.39a7,7,0,0,1,.27-2.14A2.55,2.55,0,0,1,10.62,3,2,2,0,0,1,12,2.57a2.17,2.17,0,0,1,1,.24,1.94,1.94,0,0,1,.75.7,3.48,3.48,0,0,1,.46,1.11,7.54,7.54,0,0,1,.17,1.77,6.9,6.9,0,0,1-.27,2.12,2.69,2.69,0,0,1-.81,1.25,2.1,2.1,0,0,1-1.3.44,2,2,0,0,1-1.69-.78A4.91,4.91,0,0,1,9.54,6.39Zm.94,0a4.66,4.66,0,0,0,.43,2.44,1.23,1.23,0,0,0,1.68.45A1.21,1.21,0,0,0,13,8.83a4.66,4.66,0,0,0,.43-2.44A4.84,4.84,0,0,0,13,3.93a1.29,1.29,0,0,0-1-.6,1.16,1.16,0,0,0-1,.53A4.63,4.63,0,0,0,10.48,6.39Z" fill="#fff"/>
<path d="M18.8,10.07h-.92V4.22a4.25,4.25,0,0,1-.87.64,6.08,6.08,0,0,1-1,.47V4.44a5.41,5.41,0,0,0,1.34-.87,3.6,3.6,0,0,0,.82-1h.59Z" fill="#fff"/>
</svg>
