<?xml version="1.0" encoding="UTF-8"?>
<svg viewBox="0 0 22.23 12.76" xmlns="http://www.w3.org/2000/svg">
<rect width="22.23" height="12.76" rx="3.44" fill="#c5b000"/>
<path d="M6.21,10.07V8.28H3V7.44L6.38,2.6h.75V7.44h1v.84h-1v1.79Zm0-2.63V4.07L3.87,7.44Z" fill="#fff"/>
<path d="M8.82,6.38a7,7,0,0,1,.27-2.13A2.69,2.69,0,0,1,9.9,3a2.06,2.06,0,0,1,1.35-.43,2.29,2.29,0,0,1,1.06.24,1.94,1.94,0,0,1,.75.7,3.73,3.73,0,0,1,.46,1.11,7.45,7.45,0,0,1,.17,1.76,7,7,0,0,1-.27,2.13,2.71,2.71,0,0,1-.81,1.24,2,2,0,0,1-1.36.44,2,2,0,0,1-1.69-.77A4.92,4.92,0,0,1,8.82,6.38Zm.94,0a4.7,4.7,0,0,0,.43,2.45,1.27,1.27,0,0,0,1.06.61,1.29,1.29,0,0,0,1.07-.61,4.7,4.7,0,0,0,.43-2.45,4.7,4.7,0,0,0-.43-2.45,1.31,1.31,0,0,0-1.08-.61,1.19,1.19,0,0,0-1,.54A4.87,4.87,0,0,0,9.76,6.38Z" fill="#fff"/>
<path d="M14.37,8.09,15.28,8a2.1,2.1,0,0,0,.54,1.13,1.32,1.32,0,0,0,.93.34,1.57,1.57,0,0,0,1.54-1.58,1.38,1.38,0,0,0-.42-1,1.42,1.42,0,0,0-1.05-.41,2.31,2.31,0,0,0-.64.1l.1-.81h.14a1.9,1.9,0,0,0,1.06-.31,1,1,0,0,0,.52-1,1.15,1.15,0,0,0-.34-.84,1.24,1.24,0,0,0-.88-.33,1.25,1.25,0,0,0-.9.34,1.72,1.72,0,0,0-.46,1l-.91-.17a2.4,2.4,0,0,1,.76-1.43,2.24,2.24,0,0,1,1.49-.5,2.31,2.31,0,0,1,1.12.26A1.86,1.86,0,0,1,18.94,4.5a1.62,1.62,0,0,1-.26.88,1.75,1.75,0,0,1-.77.63,1.75,1.75,0,0,1,1,.63,1.89,1.89,0,0,1,.37,1.21,2.22,2.22,0,0,1-.71,1.66,2.53,2.53,0,0,1-1.81.68,2.33,2.33,0,0,1-1.63-.59A2.21,2.21,0,0,1,14.37,8.09Z" fill="#fff"/>
</svg>
