<?xml version="1.0" encoding="UTF-8"?>
<svg viewBox="0 0 22.23 12.76" xmlns="http://www.w3.org/2000/svg">
<rect width="22.23" height="12.76" rx="3.44" fill="#946857"/>
<path d="M5.92,10.07V8.28H2.68V7.44L6.09,2.6h.75V7.44h1v.84h-1v1.79Zm0-2.63V4.07L3.58,7.44Z" fill="#fff"/>
<path d="M8.79,6.38a7,7,0,0,1,.27-2.13A2.55,2.55,0,0,1,9.87,3a2,2,0,0,1,1.36-.44,2.17,2.17,0,0,1,1,.24,1.94,1.94,0,0,1,.75.7,3.48,3.48,0,0,1,.46,1.11,7.45,7.45,0,0,1,.17,1.76,7,7,0,0,1-.27,2.13,2.69,2.69,0,0,1-.81,1.25,2,2,0,0,1-1.35.44,2,2,0,0,1-1.7-.78A5,5,0,0,1,8.79,6.38Zm.94,0a4.7,4.7,0,0,0,.43,2.45,1.23,1.23,0,0,0,1.68.45,1.21,1.21,0,0,0,.45-.45,4.7,4.7,0,0,0,.43-2.45,4.7,4.7,0,0,0-.43-2.45,1.28,1.28,0,0,0-1.08-.6,1.16,1.16,0,0,0-1,.53A4.67,4.67,0,0,0,9.73,6.38Z" fill="#fff"/>
<path d="M14.59,8.11l1-.08a1.77,1.77,0,0,0,.49,1.06,1.38,1.38,0,0,0,1,.35,1.45,1.45,0,0,0,1.12-.5,1.89,1.89,0,0,0,.46-1.32,1.66,1.66,0,0,0-.45-1.24,1.7,1.7,0,0,0-1.95-.25,1.47,1.47,0,0,0-.56.52l-.86-.11.72-3.84H19.2v.88h-3l-.4,2a2.46,2.46,0,0,1,1.41-.47,2.26,2.26,0,0,1,1.66.68,2.42,2.42,0,0,1,.67,1.75A2.68,2.68,0,0,1,19,9.29a2.38,2.38,0,0,1-2,.91,2.37,2.37,0,0,1-1.67-.58A2.25,2.25,0,0,1,14.59,8.11Z" fill="#fff"/>
</svg>
