<?xml version="1.0" encoding="UTF-8"?>
<svg viewBox="0 0 22.18 13.15" xmlns="http://www.w3.org/2000/svg">
<path d="M22.18,9.61a3.49,3.49,0,0,1-3.43,3.54H3.44A3.49,3.49,0,0,1,0,9.61H0V3.55A3.5,3.5,0,0,1,3.44,0H18.75a3.49,3.49,0,0,1,3.43,3.55h0Z" fill="#c31932"/>
<path d="M5.91,7.72V4.24L3.58,7.72Zm0,2.71V8.58H2.68V7.72l3.4-5h.75v5h1v.86h-1v1.85Z" fill="#fff"/>
<path d="M9.71,6.58a5,5,0,0,0,.43,2.52,1.21,1.21,0,0,0,1.64.48,1.23,1.23,0,0,0,.48-.48,5,5,0,0,0,.43-2.52,5,5,0,0,0-.43-2.53,1.28,1.28,0,0,0-1.07-.62,1.15,1.15,0,0,0-1,.55,5.07,5.07,0,0,0-.47,2.6m-.94,0A7.42,7.42,0,0,1,9,4.38,2.71,2.71,0,0,1,9.85,3.1a2,2,0,0,1,1.35-.45,2.13,2.13,0,0,1,1.05.24,2.16,2.16,0,0,1,.75.72,4,4,0,0,1,.46,1.15,7.44,7.44,0,0,1,.17,1.82,7.35,7.35,0,0,1-.27,2.19,2.79,2.79,0,0,1-.8,1.28,2,2,0,0,1-1.36.46,2,2,0,0,1-1.69-.8,5.2,5.2,0,0,1-.74-3.13" fill="#fff"/>
<path d="M14.13,3.67V2.76H19V3.5a9.83,9.83,0,0,0-1.41,2.09,13,13,0,0,0-1.08,2.68,10.3,10.3,0,0,0-.35,2.13h-.94a9.7,9.7,0,0,1,.35-2.21,11.7,11.7,0,0,1,.94-2.49,10.93,10.93,0,0,1,1.31-2Z" fill="#fff"/>
<path d="M22.18,9.61a3.49,3.49,0,0,1-3.43,3.54H3.44A3.49,3.49,0,0,1,0,9.61H0V3.55A3.5,3.5,0,0,1,3.44,0H18.75a3.49,3.49,0,0,1,3.43,3.55h0Z" fill="#c31932"/>
<path d="M5.91,7.72V4.24L3.58,7.72Zm0,2.71V8.58H2.68V7.72l3.4-5h.75v5h1v.86h-1v1.85Z" fill="#fff"/>
<path d="M9.71,6.58a5,5,0,0,0,.43,2.52,1.21,1.21,0,0,0,1.64.48,1.23,1.23,0,0,0,.48-.48,5,5,0,0,0,.43-2.52,5,5,0,0,0-.43-2.53,1.28,1.28,0,0,0-1.07-.62,1.15,1.15,0,0,0-1,.55,5.07,5.07,0,0,0-.47,2.6m-.94,0A7.42,7.42,0,0,1,9,4.38,2.71,2.71,0,0,1,9.85,3.1a2,2,0,0,1,1.35-.45,2.13,2.13,0,0,1,1.05.24,2.16,2.16,0,0,1,.75.72,4,4,0,0,1,.46,1.15,7.44,7.44,0,0,1,.17,1.82,7.35,7.35,0,0,1-.27,2.19,2.79,2.79,0,0,1-.8,1.28,2,2,0,0,1-1.36.46,2,2,0,0,1-1.69-.8,5.2,5.2,0,0,1-.74-3.13" fill="#fff"/>
<path d="M14.13,3.67V2.76H19V3.5a9.83,9.83,0,0,0-1.41,2.09,13,13,0,0,0-1.08,2.68,10.3,10.3,0,0,0-.35,2.13h-.94a9.7,9.7,0,0,1,.35-2.21,11.7,11.7,0,0,1,.94-2.49,10.93,10.93,0,0,1,1.31-2Z" fill="#fff"/>
</svg>
