<?xml version="1.0" encoding="UTF-8"?>
<svg viewBox="0 0 22.23 12.76" xmlns="http://www.w3.org/2000/svg">
<rect width="22.23" height="12.76" rx="3.44" fill="#8cc9a6"/>
<path d="M3.58,8.11l1-.08A1.74,1.74,0,0,0,5,9.09a1.4,1.4,0,0,0,1,.35,1.47,1.47,0,0,0,1.13-.5,1.93,1.93,0,0,0,.45-1.32,1.67,1.67,0,0,0-.44-1.24A1.55,1.55,0,0,0,6,5.93a1.49,1.49,0,0,0-.8.2,1.47,1.47,0,0,0-.56.52l-.86-.11L4.47,2.7H8.18v.88h-3l-.4,2a2.38,2.38,0,0,1,1.41-.46,2.22,2.22,0,0,1,1.65.67,2.43,2.43,0,0,1,.68,1.75A2.74,2.74,0,0,1,8,9.29a2.38,2.38,0,0,1-2,.91,2.39,2.39,0,0,1-1.66-.57A2.24,2.24,0,0,1,3.58,8.11Z" fill="#fff"/>
<path d="M9.39,6.39a7,7,0,0,1,.27-2.14A2.55,2.55,0,0,1,10.47,3a2,2,0,0,1,1.35-.44,2.17,2.17,0,0,1,1.06.24,1.94,1.94,0,0,1,.75.7,3.48,3.48,0,0,1,.46,1.11,7.54,7.54,0,0,1,.17,1.77A6.66,6.66,0,0,1,14,8.51a2.69,2.69,0,0,1-.81,1.25,2.09,2.09,0,0,1-1.36.44,2,2,0,0,1-1.69-.78A4.83,4.83,0,0,1,9.39,6.39Zm.94,0a4.66,4.66,0,0,0,.43,2.44,1.23,1.23,0,0,0,1.68.45,1.21,1.21,0,0,0,.45-.45,4.66,4.66,0,0,0,.43-2.44,4.75,4.75,0,0,0-.43-2.46,1.28,1.28,0,0,0-1.08-.6,1.16,1.16,0,0,0-1,.53A4.71,4.71,0,0,0,10.33,6.39Z" fill="#fff"/>
<path d="M18.65,10.07h-.92V4.22a4.25,4.25,0,0,1-.87.64,5.36,5.36,0,0,1-1,.47V4.44a5.41,5.41,0,0,0,1.34-.87,3.6,3.6,0,0,0,.82-1h.59Z" fill="#fff"/>
</svg>
