<?xml version="1.0" encoding="UTF-8"?>
<svg viewBox="0 0 22.23 12.77" xmlns="http://www.w3.org/2000/svg">
<rect width="22.23" height="12.77" rx="3.44" fill="#f18c02"/>
<path d="M2.83,8.11,3.8,8a1.77,1.77,0,0,0,.49,1.06,1.36,1.36,0,0,0,.94.35,1.42,1.42,0,0,0,1.12-.5,1.83,1.83,0,0,0,.46-1.32,1.67,1.67,0,0,0-.44-1.24A1.54,1.54,0,0,0,5.22,5.9a1.69,1.69,0,0,0-.8.2,1.47,1.47,0,0,0-.56.52L3,6.54,3.72,2.7H7.44v.88h-3l-.4,2a2.38,2.38,0,0,1,1.41-.46,2.26,2.26,0,0,1,1.65.67,2.43,2.43,0,0,1,.68,1.75A2.77,2.77,0,0,1,7.2,9.29a2.38,2.38,0,0,1-2,.91,2.39,2.39,0,0,1-1.66-.57A2.26,2.26,0,0,1,2.83,8.11Z" fill="#fff"/>
<path d="M8.64,6.39a7,7,0,0,1,.27-2.14A2.62,2.62,0,0,1,9.72,3a2,2,0,0,1,1.35-.44,2,2,0,0,1,1.81.94,3.73,3.73,0,0,1,.46,1.11,7.54,7.54,0,0,1,.17,1.77,6.9,6.9,0,0,1-.27,2.12,2.69,2.69,0,0,1-.81,1.25,2.09,2.09,0,0,1-1.36.44,2,2,0,0,1-1.69-.78A4.87,4.87,0,0,1,8.64,6.39Zm.94,0A4.65,4.65,0,0,0,10,8.83a1.27,1.27,0,0,0,1.06.61,1.29,1.29,0,0,0,1.07-.61,4.66,4.66,0,0,0,.43-2.44,4.75,4.75,0,0,0-.43-2.46,1.28,1.28,0,0,0-1.08-.6,1.21,1.21,0,0,0-1,.53A4.92,4.92,0,0,0,9.58,6.39Z" fill="#fff"/>
<path d="M14.44,8.11l1-.08a1.78,1.78,0,0,0,.5,1.06,1.31,1.31,0,0,0,.94.35A1.42,1.42,0,0,0,18,8.94a1.83,1.83,0,0,0,.46-1.32A1.73,1.73,0,0,0,18,6.38a1.54,1.54,0,0,0-1.15-.45,1.72,1.72,0,0,0-.8.2,1.47,1.47,0,0,0-.56.52l-.87-.11.73-3.84H19v.88H16l-.4,2A2.38,2.38,0,0,1,17,5.12a2.26,2.26,0,0,1,1.65.67,2.42,2.42,0,0,1,.67,1.75,2.67,2.67,0,0,1-.59,1.75,2.33,2.33,0,0,1-2,.91,2.39,2.39,0,0,1-1.66-.57A2.23,2.23,0,0,1,14.44,8.11Z" fill="#fff"/>
</svg>
