<?xml version="1.0" encoding="UTF-8"?><svg id="Calque_1" xmlns="http://www.w3.org/2000/svg" viewBox="0 0 42.47 31.86"><rect y="0" width="42.47" height="31.86" style="fill:#4a4a49; stroke-width:0px;"/><path d="m18.62,8.46h-9.05l-.1,3.51c.55-.19,1.16-.26,2.03-.26,4.61,0,7.89,2.87,7.89,7.54,0,5.15-3.7,8.15-8.7,8.15-3.93,0-6.7-1.96-7.7-5.83l5.06-1.16c.26,1.64,1.45,2.74,3.12,2.74,2.06,0,3.38-1.45,3.38-3.41,0-3-2.74-3.77-5.25-3.77-1.58,0-3.22.32-4.74.84l.26-12.59h13.79v4.25h.01Z" style="fill:#fff; stroke-width:0px;"/><path d="m27.99,13.19h1.58c1.77,0,3.67-.39,3.67-2.54,0-1.38-1.26-2.38-2.83-2.38s-2.54.93-2.83,2.13l-5.31-1.09c1-3.96,4.25-5.48,8.12-5.48,4.06,0,7.7,1.96,7.7,6.35,0,2.51-1.38,4.48-3.9,4.99v.1c2.74.35,4.28,2.67,4.28,5.31,0,4.57-3.74,6.83-8.21,6.83-4.06,0-7.25-1.8-8.18-5.89l5.09-1.19c.32,1.61,1.32,2.64,3.38,2.64s3.09-1.22,3.09-2.93c0-2.58-2.35-2.64-4.51-2.64h-1.13v-4.21Z" style="fill:#fff; stroke-width:0px;"/></svg>