<?xml version="1.0" encoding="UTF-8"?>
<svg viewBox="0 0 22.23 12.76" xmlns="http://www.w3.org/2000/svg">
<rect width="22.23" height="12.76" rx="3.44" fill="#8d6e36"/>
<path d="M8.62,4.43l-.91.07a1.77,1.77,0,0,0-.35-.79,1.28,1.28,0,0,0-1.68-.14A2.14,2.14,0,0,0,5,4.49a4.84,4.84,0,0,0-.25,1.73,2.14,2.14,0,0,1,1.81-1,2.07,2.07,0,0,1,1.56.68,2.44,2.44,0,0,1,.65,1.74A2.81,2.81,0,0,1,8.45,9a2.19,2.19,0,0,1-2,1.25A2.33,2.33,0,0,1,4.58,9.4a4.22,4.22,0,0,1-.73-2.78,5,5,0,0,1,.8-3.15,2.31,2.31,0,0,1,1.85-.9A2.11,2.11,0,0,1,8,3.06,2.1,2.1,0,0,1,8.62,4.43ZM4.88,7.65a1.92,1.92,0,0,0,.2.91,1.5,1.5,0,0,0,.56.66,1.46,1.46,0,0,0,.76.22A1.28,1.28,0,0,0,7.4,9a1.85,1.85,0,0,0,.42-1.3,1.76,1.76,0,0,0-.41-1.22,1.37,1.37,0,0,0-1-.45,1.41,1.41,0,0,0-1.06.45A1.6,1.6,0,0,0,4.88,7.65Z" fill="#fff"/>
<path d="M9.41,6.39a7,7,0,0,1,.27-2.14A2.55,2.55,0,0,1,10.49,3a2,2,0,0,1,1.35-.44,2.17,2.17,0,0,1,1.06.24,1.94,1.94,0,0,1,.75.7,3.48,3.48,0,0,1,.46,1.11,7.54,7.54,0,0,1,.17,1.77A7,7,0,0,1,14,8.51a2.69,2.69,0,0,1-.81,1.25,2.09,2.09,0,0,1-1.36.44,2,2,0,0,1-1.69-.78A4.83,4.83,0,0,1,9.41,6.39Zm.94,0a4.66,4.66,0,0,0,.43,2.44,1.23,1.23,0,0,0,1.68.45,1.21,1.21,0,0,0,.45-.45,4.66,4.66,0,0,0,.43-2.44,4.75,4.75,0,0,0-.43-2.46,1.28,1.28,0,0,0-1.08-.6,1.21,1.21,0,0,0-1,.53A4.8,4.8,0,0,0,10.35,6.39Z" fill="#fff"/>
<path d="M18.41,10.07h-.92V4.22a4.25,4.25,0,0,1-.87.64,5.36,5.36,0,0,1-1,.47V4.44A5.36,5.36,0,0,0,17,3.57a3.4,3.4,0,0,0,.81-1h.6Z" fill="#fff"/>
</svg>
