<?xml version="1.0" encoding="UTF-8"?>
<svg viewBox="0 0 22.23 12.77" xmlns="http://www.w3.org/2000/svg">
<rect width="22.23" height="12.77" rx="3.44" fill="#004d43"/>
<path d="M3.87,3.58V2.7H8.71v.71a10.32,10.32,0,0,0-1.41,2A12.26,12.26,0,0,0,6.21,8a9.56,9.56,0,0,0-.35,2.05H4.92a9,9,0,0,1,.35-2.13,10.58,10.58,0,0,1,1-2.41A10.67,10.67,0,0,1,7.53,3.58Z" fill="#fff"/>
<path d="M9.36,6.38a7,7,0,0,1,.27-2.13A2.55,2.55,0,0,1,10.44,3a2,2,0,0,1,1.35-.44,2.17,2.17,0,0,1,1.06.24,1.94,1.94,0,0,1,.75.7,3.48,3.48,0,0,1,.46,1.11,7.45,7.45,0,0,1,.17,1.76A6.73,6.73,0,0,1,14,8.51a2.69,2.69,0,0,1-.81,1.25,2.09,2.09,0,0,1-1.36.44,2,2,0,0,1-1.69-.78A4.88,4.88,0,0,1,9.36,6.38Zm.94,0a4.7,4.7,0,0,0,.43,2.45,1.23,1.23,0,0,0,1.68.45,1.21,1.21,0,0,0,.45-.45,4.7,4.7,0,0,0,.43-2.45,4.8,4.8,0,0,0-.43-2.45,1.28,1.28,0,0,0-1.08-.6,1.21,1.21,0,0,0-1,.53A4.87,4.87,0,0,0,10.3,6.38Z" fill="#fff"/>
<path d="M18.36,10.07h-.92V4.22a4.54,4.54,0,0,1-.87.64,7,7,0,0,1-1,.47V4.44A5.37,5.37,0,0,0,17,3.57a3.4,3.4,0,0,0,.81-1h.6Z" fill="#fff"/>
</svg>
