<?xml version="1.0" encoding="UTF-8"?>
<svg viewBox="0 0 22.23 12.77" xmlns="http://www.w3.org/2000/svg">
<rect width="22.23" height="12.77" rx="3.44" fill="#ce7013"/>
<path d="M3.19,3.58V2.7H8v.71a10.37,10.37,0,0,0-1.42,2A13.26,13.26,0,0,0,5.53,8a9.56,9.56,0,0,0-.35,2.05H4.24a9,9,0,0,1,.34-2.13,11,11,0,0,1,1-2.41A10.38,10.38,0,0,1,6.85,3.58Z" fill="#fff"/>
<path d="M8.67,6.38A7,7,0,0,1,9,4.25,2.57,2.57,0,0,1,9.76,3a2,2,0,0,1,1.35-.44,2.29,2.29,0,0,1,1.06.24,1.94,1.94,0,0,1,.75.7,3.73,3.73,0,0,1,.46,1.11,7.45,7.45,0,0,1,.17,1.76,7,7,0,0,1-.27,2.13,2.69,2.69,0,0,1-.81,1.25,2.09,2.09,0,0,1-1.36.44,2,2,0,0,1-1.7-.78A4.9,4.9,0,0,1,8.67,6.38Zm.95,0a4.7,4.7,0,0,0,.43,2.45,1.23,1.23,0,0,0,1.68.44,1.32,1.32,0,0,0,.44-.44,4.7,4.7,0,0,0,.43-2.45,4.7,4.7,0,0,0-.43-2.45,1.26,1.26,0,0,0-1.07-.6,1.21,1.21,0,0,0-1,.53A4.67,4.67,0,0,0,9.62,6.38Z" fill="#fff"/>
<path d="M19,9.19v.88H14.1a1.54,1.54,0,0,1,.11-.64,3.64,3.64,0,0,1,.6-1A9,9,0,0,1,16,7.31a10.35,10.35,0,0,0,1.65-1.59,1.86,1.86,0,0,0,.43-1.1,1.23,1.23,0,0,0-.39-.92,1.41,1.41,0,0,0-1-.37,1.44,1.44,0,0,0-1.06.39,1.51,1.51,0,0,0-.4,1.11l-.94-.1A2.33,2.33,0,0,1,15,3.12a2.49,2.49,0,0,1,1.7-.55,2.41,2.41,0,0,1,1.7.59A2,2,0,0,1,19,4.64a2.23,2.23,0,0,1-.18.88,3.59,3.59,0,0,1-.61.92,17.62,17.62,0,0,1-1.42,1.31c-.55.46-.9.78-1.06.94a3.14,3.14,0,0,0-.38.5Z" fill="#fff"/>
</svg>
