<?xml version="1.0" encoding="UTF-8"?>
<svg viewBox="0 0 22.23 12.76" xmlns="http://www.w3.org/2000/svg">
<rect width="22.23" height="12.76" rx="3.44" fill="#863399"/>
<path d="M3.12,3.58V2.7H8v.71a10.32,10.32,0,0,0-1.41,2A13,13,0,0,0,5.46,8a9.56,9.56,0,0,0-.35,2.05H4.17a9,9,0,0,1,.35-2.13,10.58,10.58,0,0,1,1-2.41A9.9,9.9,0,0,1,6.79,3.58Z" fill="#fff"/>
<path d="M8.61,6.39a7,7,0,0,1,.27-2.14A2.55,2.55,0,0,1,9.69,3,2,2,0,0,1,11,2.57a2.17,2.17,0,0,1,1.06.24,1.94,1.94,0,0,1,.75.7,3.48,3.48,0,0,1,.46,1.11,7.54,7.54,0,0,1,.17,1.77,6.9,6.9,0,0,1-.27,2.12,2.69,2.69,0,0,1-.81,1.25A2.09,2.09,0,0,1,11,10.2a2,2,0,0,1-1.69-.78A4.82,4.82,0,0,1,8.61,6.39Zm.94,0A4.58,4.58,0,0,0,10,8.83a1.23,1.23,0,0,0,1.68.45,1.21,1.21,0,0,0,.45-.45,4.66,4.66,0,0,0,.43-2.44,4.75,4.75,0,0,0-.43-2.46A1.28,1.28,0,0,0,11,3.33a1.21,1.21,0,0,0-1,.53A4.8,4.8,0,0,0,9.55,6.39Z" fill="#fff"/>
<path d="M14.15,8.11l1-.08a1.78,1.78,0,0,0,.5,1.06,1.36,1.36,0,0,0,.94.35,1.42,1.42,0,0,0,1.12-.5,1.83,1.83,0,0,0,.46-1.32,1.67,1.67,0,0,0-.44-1.24,1.54,1.54,0,0,0-1.15-.45,1.49,1.49,0,0,0-.8.2,1.47,1.47,0,0,0-.56.52l-.86-.11L15,2.7h3.71v.88h-3l-.4,2a2.39,2.39,0,0,1,1.41-.47,2.26,2.26,0,0,1,1.65.67,2.43,2.43,0,0,1,.68,1.75,2.7,2.7,0,0,1-.6,1.75,2.32,2.32,0,0,1-2,.91,2.39,2.39,0,0,1-1.66-.57A2.19,2.19,0,0,1,14.15,8.11Z" fill="#fff"/>
</svg>
