<?xml version="1.0" encoding="UTF-8"?><svg id="Calque_1" xmlns="http://www.w3.org/2000/svg" viewBox="0 0 42.47 31.86"><rect y="0" width="42.47" height="31.86" style="fill:#76b82a; stroke-width:0px;"/><path d="m11.45,3.8c4.19,0,7.63,2.09,7.63,6.28,0,2.48-1.42,4.35-3.87,5.06v.06c2.74.74,4.25,2.71,4.25,5.54,0,4.41-3.8,6.64-8.02,6.64s-8.02-2.22-8.02-6.64c0-2.83,1.51-4.8,4.25-5.54v-.06c-2.45-.71-3.87-2.58-3.87-5.06,0-4.19,3.45-6.28,7.63-6.28h.02Zm0,19.13c1.9,0,3.19-1.29,3.19-2.87s-1.29-2.9-3.19-2.9-3.19,1.29-3.19,2.9,1.29,2.87,3.19,2.87Zm0-9.63c1.67,0,2.8-1.13,2.8-2.54s-1.13-2.51-2.8-2.51-2.8,1.13-2.8,2.51,1.13,2.54,2.8,2.54Z" style="fill:#fff; stroke-width:0px;"/><path d="m27.94,13.18h1.58c1.77,0,3.67-.39,3.67-2.54,0-1.38-1.26-2.38-2.83-2.38s-2.54.93-2.83,2.13l-5.31-1.09c1-3.96,4.25-5.48,8.12-5.48,4.06,0,7.7,1.96,7.7,6.35,0,2.51-1.38,4.48-3.9,4.99v.1c2.74.35,4.28,2.67,4.28,5.31,0,4.57-3.74,6.83-8.21,6.83-4.06,0-7.25-1.8-8.18-5.89l5.09-1.19c.32,1.61,1.32,2.64,3.38,2.64s3.09-1.22,3.09-2.93c0-2.58-2.35-2.64-4.51-2.64h-1.13v-4.21Z" style="fill:#fff; stroke-width:0px;"/></svg>