<svg id="Calque_1" data-name="Calque 1" xmlns="http://www.w3.org/2000/svg" viewBox="0 0 56.69 42.52"><defs><style>.cls-1{fill:#93c022;}.cls-2{fill:#fff;}.cls-3{fill:#e21643;}</style></defs><rect class="cls-1" x="0.35" width="56.69" height="42.52"/><path class="cls-2" d="M2.39,3.33c.22,0,.48-.06.77-.08s.65,0,1.09,0a6.21,6.21,0,0,1,1.08.09,2.61,2.61,0,0,1,.89.32,1.72,1.72,0,0,1,.6.6A1.85,1.85,0,0,1,7,5.16a2.06,2.06,0,0,1-.1.62,1.6,1.6,0,0,1-.27.5,1.53,1.53,0,0,1-.37.35,1.07,1.07,0,0,1-.43.18A2,2,0,0,1,6.4,7a1.78,1.78,0,0,1,1,.92,2,2,0,0,1,.17.85,2.17,2.17,0,0,1-.26,1.11,1.88,1.88,0,0,1-.69.68,2.76,2.76,0,0,1-1,.34A6.59,6.59,0,0,1,4.4,11c-.32,0-.64,0-1,0s-.67-.05-1.06-.1Zm2,3a2.46,2.46,0,0,0,.49,0,1,1,0,0,0,.39-.16.87.87,0,0,0,.26-.33,1.23,1.23,0,0,0,.09-.51,1.06,1.06,0,0,0-.11-.5.81.81,0,0,0-.28-.3,1,1,0,0,0-.38-.14,2.15,2.15,0,0,0-.43,0,3.23,3.23,0,0,0-.48,0v2ZM3.9,9.68l.33,0h.35a3.73,3.73,0,0,0,.46,0,1.42,1.42,0,0,0,.45-.16.92.92,0,0,0,.34-.34A1,1,0,0,0,6,8.63a1.2,1.2,0,0,0-.11-.54.88.88,0,0,0-.29-.34,1.11,1.11,0,0,0-.46-.18,2.68,2.68,0,0,0-.59-.06H3.9Z"/><path class="cls-2" d="M8.62,3.34,9,3.3h.75l.39,0V7.22a8.59,8.59,0,0,0,0,1.09,2.43,2.43,0,0,0,.18.75.93.93,0,0,0,.4.43,1.29,1.29,0,0,0,.66.15,1.23,1.23,0,0,0,.65-.15.87.87,0,0,0,.39-.43,2.16,2.16,0,0,0,.19-.75c0-.3.05-.66.05-1.09V3.34l.39,0h.75l.39,0v4.2a6.64,6.64,0,0,1-.13,1.39A2.76,2.76,0,0,1,13.67,10a2.13,2.13,0,0,1-.87.69,3.39,3.39,0,0,1-1.37.25,3.35,3.35,0,0,1-1.37-.25A2.06,2.06,0,0,1,9.19,10a2.93,2.93,0,0,1-.45-1.08,7.42,7.42,0,0,1-.12-1.39Z"/><path class="cls-2" d="M17,7.36a4.24,4.24,0,0,1-.64-.3,2.23,2.23,0,0,1-.48-.38,1.57,1.57,0,0,1-.3-.54,2.12,2.12,0,0,1-.11-.75,2.32,2.32,0,0,1,.18-.94,1.91,1.91,0,0,1,.51-.68A2.29,2.29,0,0,1,17,3.36,3.42,3.42,0,0,1,18,3.22a5.21,5.21,0,0,1,1,.09,6.79,6.79,0,0,1,1,.27,3.72,3.72,0,0,1-.33,1.19l-.32-.13a2.75,2.75,0,0,0-.34-.1l-.41-.07a4.05,4.05,0,0,0-.52,0l-.36,0a1.18,1.18,0,0,0-.33.12.69.69,0,0,0-.24.24.89.89,0,0,0-.09.43.71.71,0,0,0,.07.34.68.68,0,0,0,.2.24A1.31,1.31,0,0,0,17.6,6l.31.13.63.24a6.81,6.81,0,0,1,.71.32,1.93,1.93,0,0,1,.55.41,1.7,1.7,0,0,1,.35.6,2.6,2.6,0,0,1,.12.85,2.33,2.33,0,0,1-.19,1,2.15,2.15,0,0,1-.55.75,2.78,2.78,0,0,1-.9.49,3.9,3.9,0,0,1-1.24.18l-.61,0-.52-.07-.48-.12-.5-.18a5.22,5.22,0,0,1,.11-.63c.06-.22.13-.44.2-.66a5.58,5.58,0,0,0,.82.27,3.7,3.7,0,0,0,.83.09,1.91,1.91,0,0,0,1-.25.82.82,0,0,0,.37-.74.87.87,0,0,0-.09-.42.89.89,0,0,0-.23-.28A1.23,1.23,0,0,0,18,7.75l-.37-.15Z"/><path class="cls-2" d="M23.73,3.34l.86-.09c.26,0,.56,0,.89,0a6.17,6.17,0,0,1,1.13.1,3,3,0,0,1,1,.37,2.07,2.07,0,0,1,.72.72,2.11,2.11,0,0,1,.28,1.15,2.33,2.33,0,0,1-.11.73,2.22,2.22,0,0,1-.26.56,2.89,2.89,0,0,1-.35.41,2.55,2.55,0,0,1-.35.27l-.18.12,1.82,3.16-.44,0a3.54,3.54,0,0,1-.46,0,4.93,4.93,0,0,1-.78-.06l-2-3.47.25-.13L26.14,7a2.07,2.07,0,0,0,.4-.28,1.54,1.54,0,0,0,.33-.42A1.16,1.16,0,0,0,27,5.74a1.19,1.19,0,0,0-.38-1,1.5,1.5,0,0,0-1-.31,2.48,2.48,0,0,0-.41,0v6.31l-.38,0h-.74a2.85,2.85,0,0,1-.4,0Z"/><path class="cls-2" d="M30,3.34h4.25a3.39,3.39,0,0,1,.06.64,3.49,3.49,0,0,1-.06.65H31.53V6.25H33.7a3.74,3.74,0,0,1,.06.65,3.49,3.49,0,0,1-.06.65H31.53v2h2.8a3.5,3.5,0,0,1,0,1.29H30Z"/><path class="cls-2" d="M35.54,3.34a4.81,4.81,0,0,1,.74-.06,5.17,5.17,0,0,1,.76.06V9.51h2.59c0,.12,0,.23,0,.34s0,.21,0,.31,0,.22,0,.32,0,.22,0,.34H35.54Z"/><path class="cls-2" d="M42.41,3.34l.41,0h.85l.43,0,2.34,7.48a5.9,5.9,0,0,1-.83.06,4.9,4.9,0,0,1-.77-.06l-.42-1.5H42l-.43,1.5a4.56,4.56,0,0,1-.72.06,4.87,4.87,0,0,1-.76-.06Zm1.66,4.72-.86-3.14L42.3,8.06Z"/><path class="cls-2" d="M47.29,3.34a4.87,4.87,0,0,1,.76-.06,5.06,5.06,0,0,1,.76.06v7.48a4.84,4.84,0,0,1-1.52,0Z"/><path class="cls-2" d="M51.64,7.36a4.24,4.24,0,0,1-.64-.3,1.83,1.83,0,0,1-.48-.38,1.78,1.78,0,0,1-.31-.54,2.39,2.39,0,0,1-.1-.75,2.32,2.32,0,0,1,.18-.94,1.91,1.91,0,0,1,.51-.68,2.33,2.33,0,0,1,.8-.41,3.53,3.53,0,0,1,1.06-.14,5.21,5.21,0,0,1,1,.09,6.79,6.79,0,0,1,1,.27,3.72,3.72,0,0,1-.33,1.19L54,4.64l-.34-.1-.41-.07a4.17,4.17,0,0,0-.52,0l-.36,0a1.18,1.18,0,0,0-.33.12.69.69,0,0,0-.24.24.89.89,0,0,0-.09.43.71.71,0,0,0,.07.34.59.59,0,0,0,.2.24,1.1,1.1,0,0,0,.28.17l.31.13.62.24a6.17,6.17,0,0,1,.72.32,1.93,1.93,0,0,1,.55.41,1.86,1.86,0,0,1,.35.6,2.6,2.6,0,0,1,.12.85,2.33,2.33,0,0,1-.19,1,2.05,2.05,0,0,1-.56.75,2.59,2.59,0,0,1-.9.49A3.8,3.8,0,0,1,52,11l-.61,0-.52-.07a4.21,4.21,0,0,1-.48-.12l-.5-.18A5.22,5.22,0,0,1,50,9.93c.06-.22.12-.44.2-.66a5.22,5.22,0,0,0,.82.27,3.62,3.62,0,0,0,.82.09,1.89,1.89,0,0,0,1-.25.82.82,0,0,0,.38-.74.87.87,0,0,0-.09-.42A1,1,0,0,0,53,7.94a1.13,1.13,0,0,0-.32-.19l-.36-.15Z"/><path class="cls-3" d="M40.34,27.2A12.21,12.21,0,1,1,28.14,15a12.21,12.21,0,0,1,12.2,12.2"/><path class="cls-2" d="M23.68,20.68c.38-.06.83-.11,1.34-.15s1.14-.05,1.9-.05a10.29,10.29,0,0,1,1.88.16,4.65,4.65,0,0,1,1.55.55,2.88,2.88,0,0,1,1,1,3.62,3.62,0,0,1,.21,2.71,3,3,0,0,1-.46.87,2.93,2.93,0,0,1-.65.62,1.87,1.87,0,0,1-.74.3,3.87,3.87,0,0,1,.92.25,3,3,0,0,1,.94.59,3.2,3.2,0,0,1,.73,1,3.57,3.57,0,0,1,.29,1.49A3.73,3.73,0,0,1,32.18,32,3.23,3.23,0,0,1,31,33.18a5.33,5.33,0,0,1-1.74.59,12.6,12.6,0,0,1-2.08.17c-.55,0-1.1,0-1.64,0s-1.16-.09-1.85-.17ZM27.1,26a3.73,3.73,0,0,0,.84-.09,1.67,1.67,0,0,0,.68-.29,1.2,1.2,0,0,0,.45-.56,2.08,2.08,0,0,0,.17-.89,1.79,1.79,0,0,0-.19-.86,1.48,1.48,0,0,0-.49-.53,1.69,1.69,0,0,0-.67-.25,3.68,3.68,0,0,0-.73-.07,5.17,5.17,0,0,0-.86.06V26Zm-.8,5.76.59.05.61,0a5.77,5.77,0,0,0,.8-.07,2.64,2.64,0,0,0,.77-.28,1.67,1.67,0,0,0,.6-.58,1.79,1.79,0,0,0,.24-1,2.16,2.16,0,0,0-.18-.94,1.56,1.56,0,0,0-.52-.59,2,2,0,0,0-.8-.32,5.3,5.3,0,0,0-1-.09H26.3Z"/></svg>