<svg id="Calque_1" data-name="Calque 1" xmlns="http://www.w3.org/2000/svg" xmlns:xlink="http://www.w3.org/1999/xlink" viewBox="0 0 56.69 42.52"><defs><style>.cls-1{fill:none;}.cls-2{fill:#cd117e;}.cls-3{clip-path:url(#clip-path);}.cls-4{fill:#fff;}.cls-5{fill:#e20e7e;}</style><clipPath id="clip-path"><rect class="cls-1" x="0.57" width="56.69" height="42.52"/></clipPath></defs><rect class="cls-2" x="0.57" width="56.69" height="42.52"/><g class="cls-3"><path class="cls-4" d="M8.68,30.08,9.3,30,10,30l.6,0,.66.07,3.5,10.18a8.83,8.83,0,0,1-1.24.09,7.15,7.15,0,0,1-1.15-.09l-.63-2H8l-.63,2a6.94,6.94,0,0,1-1.08.09,7.3,7.3,0,0,1-1.14-.09Zm2.49,6.43L9.88,32.23,8.52,36.51Z"/><path class="cls-4" d="M16.1,30.08,17.38,30c.4,0,.84-.05,1.33-.05a9.48,9.48,0,0,1,1.69.14,4.8,4.8,0,0,1,1.51.5,3.08,3.08,0,0,1,1.08,1,2.7,2.7,0,0,1,.41,1.56,3,3,0,0,1-.15,1,3.21,3.21,0,0,1-.4.76,3.11,3.11,0,0,1-.52.56,6.1,6.1,0,0,1-.53.38l-.27.15,2.73,4.31-.65,0c-.23,0-.47,0-.71,0a8.92,8.92,0,0,1-1.16-.08l-2.93-4.73.37-.17.53-.26a2.8,2.8,0,0,0,.6-.39,2,2,0,0,0,.49-.56,1.48,1.48,0,0,0,.2-.79A1.51,1.51,0,0,0,20.44,32,2.33,2.33,0,0,0,19,31.62a5.87,5.87,0,0,0-.62,0v8.6l-.56.05-.55,0H16.7l-.6-.06Z"/><path class="cls-4" d="M25.51,30.08h6.35a3.55,3.55,0,0,1,.1.86,3.68,3.68,0,0,1-.1.89H27.78V34H31a4.61,4.61,0,0,1,.09.88,4.41,4.41,0,0,1-.09.89H27.78V38.5H32a4.3,4.3,0,0,1,.1.87,4.26,4.26,0,0,1-.1.89H25.51Z"/><path class="cls-4" d="M33.78,30.08A5,5,0,0,1,34.7,30a5.36,5.36,0,0,1,1,.09L40,36.56V30.08A6.72,6.72,0,0,1,41.07,30a4.91,4.91,0,0,1,.94.09V40.26a5.27,5.27,0,0,1-.91.09,5.52,5.52,0,0,1-1-.09l-4.36-6.47v6.47a5.69,5.69,0,0,1-1,.09,5.36,5.36,0,0,1-1-.09Z"/><path class="cls-4" d="M46.79,30.08l.62-.07.66,0,.61,0,.65.07,3.5,10.18a8.83,8.83,0,0,1-1.24.09,7.36,7.36,0,0,1-1.16-.09l-.62-2H46.1l-.64,2a6.72,6.72,0,0,1-1.07.09,7.3,7.3,0,0,1-1.14-.09Zm2.49,6.43L48,32.23l-1.36,4.28Z"/><path class="cls-4" d="M28.92,27.91H46.46a1.77,1.77,0,0,0,1.73-1.41l1.51-5s1.7-6.29-4.25-6.95a163.37,163.37,0,0,0-16.53-.72h0a163.52,163.52,0,0,0-16.53.72c-5.95.66-4.25,7-4.25,7l1.51,5a1.77,1.77,0,0,0,1.73,1.41Z"/><rect class="cls-5" x="11.45" y="25.38" width="2.99" height="0.54"/><rect class="cls-5" x="11.45" y="24.31" width="2.99" height="0.54"/><rect class="cls-5" x="11.45" y="22.17" width="2.99" height="0.54"/><rect class="cls-5" x="15.07" y="24.31" width="2.99" height="0.54"/><rect class="cls-5" x="15.07" y="23.24" width="2.99" height="0.54"/><rect class="cls-5" x="15.07" y="22.17" width="2.99" height="0.54"/><rect class="cls-5" x="15.07" y="21.1" width="2.99" height="0.54"/><rect class="cls-5" x="18.69" y="25.38" width="2.99" height="0.54"/><rect class="cls-5" x="18.69" y="24.31" width="2.99" height="0.54"/><rect class="cls-5" x="18.69" y="22.17" width="2.99" height="0.54"/><rect class="cls-5" x="22.31" y="25.38" width="2.99" height="0.54"/><rect class="cls-5" x="22.31" y="23.24" width="2.99" height="0.54"/><rect class="cls-5" x="25.93" y="25.38" width="2.99" height="0.54"/><rect class="cls-5" x="25.93" y="24.31" width="2.99" height="0.54"/><rect class="cls-5" x="25.93" y="23.24" width="2.99" height="0.54"/><rect class="cls-5" x="25.93" y="22.17" width="2.99" height="0.54"/><rect class="cls-5" x="25.93" y="21.1" width="2.99" height="0.54"/><rect class="cls-5" x="29.55" y="25.38" width="2.99" height="0.54"/><rect class="cls-5" x="29.55" y="24.31" width="2.99" height="0.54"/><rect class="cls-5" x="29.55" y="23.24" width="2.99" height="0.54"/><rect class="cls-5" x="29.55" y="22.17" width="2.99" height="0.54"/><rect class="cls-5" x="33.17" y="25.38" width="2.99" height="0.54"/><rect class="cls-5" x="33.17" y="23.24" width="2.99" height="0.54"/><rect class="cls-5" x="36.79" y="25.38" width="2.99" height="0.54"/><rect class="cls-5" x="36.79" y="24.31" width="2.99" height="0.54"/><rect class="cls-5" x="36.79" y="23.24" width="2.99" height="0.54"/><rect class="cls-5" x="36.79" y="22.17" width="2.99" height="0.54"/><rect class="cls-5" x="40.41" y="25.38" width="2.99" height="0.54"/><rect class="cls-5" x="40.41" y="24.31" width="2.99" height="0.54"/><rect class="cls-5" x="40.41" y="23.24" width="2.99" height="0.54"/><rect class="cls-5" x="40.41" y="22.17" width="2.99" height="0.54"/><rect class="cls-5" x="44.03" y="25.38" width="2.99" height="0.54"/><rect class="cls-5" x="44.03" y="24.31" width="2.99" height="0.54"/><rect class="cls-5" x="44.03" y="23.24" width="2.99" height="0.54"/><path class="cls-4" d="M5.08,1.83a3.81,3.81,0,0,1,.8-.08,4.14,4.14,0,0,1,.85.08L10.54,8.1V1.83a5.19,5.19,0,0,1,.94-.08,3.68,3.68,0,0,1,.82.08v9.84a3.84,3.84,0,0,1-.79.08,4.32,4.32,0,0,1-.84-.08L6.84,5.42v6.25a4.4,4.4,0,0,1-.89.08,4.14,4.14,0,0,1-.87-.08Z"/><path class="cls-4" d="M17.75,7a1.2,1.2,0,0,0-.11-.54.84.84,0,0,0-.3-.32A1.24,1.24,0,0,0,16.87,6a5.87,5.87,0,0,0-.62,0,4.91,4.91,0,0,0-1.58.29,4.11,4.11,0,0,1-.29-.67,2.75,2.75,0,0,1-.09-.75,7.58,7.58,0,0,1,2.32-.4,3.36,3.36,0,0,1,2.23.68,2.75,2.75,0,0,1,.8,2.19v4.11a11.5,11.5,0,0,1-1.16.29,8,8,0,0,1-1.55.14,6.3,6.3,0,0,1-1.28-.13,2.74,2.74,0,0,1-1-.41,1.91,1.91,0,0,1-.64-.74,2.46,2.46,0,0,1-.23-1.11,2,2,0,0,1,.28-1.1,2.15,2.15,0,0,1,.73-.71,3,3,0,0,1,1-.38,5.12,5.12,0,0,1,1.09-.12c.27,0,.56,0,.88,0Zm0,1.41-.35,0-.35,0A2,2,0,0,0,16,8.6a.84.84,0,0,0-.39.77.81.81,0,0,0,.51.83,1.82,1.82,0,0,0,.46.11l.41,0a2,2,0,0,0,.42,0l.35-.06Z"/><path class="cls-4" d="M20.35,4.61A3.53,3.53,0,0,1,21,4.53l.49,0,.54,0a3.58,3.58,0,0,1,.51.06l1.55,5.28,1.52-5.28.49-.06.52,0,.47,0a3.79,3.79,0,0,1,.61.08L25,11.67a4.87,4.87,0,0,1-.55.06h-.94a3.76,3.76,0,0,1-.5-.07Z"/><path class="cls-4" d="M30,8.73a1.47,1.47,0,0,0,.57,1.19,2.29,2.29,0,0,0,1.37.37,5.26,5.26,0,0,0,.95-.09,5.41,5.41,0,0,0,.92-.25,3,3,0,0,1,.26.65,3.13,3.13,0,0,1,.13.83,6.81,6.81,0,0,1-2.41.41,4.71,4.71,0,0,1-1.69-.28,2.86,2.86,0,0,1-1.15-.76,3,3,0,0,1-.66-1.16,4.81,4.81,0,0,1-.21-1.46,4.6,4.6,0,0,1,.22-1.46,3.32,3.32,0,0,1,.65-1.2A3.1,3.1,0,0,1,30,4.72a3.55,3.55,0,0,1,1.48-.29,3.19,3.19,0,0,1,1.31.26,2.81,2.81,0,0,1,1,.71,2.87,2.87,0,0,1,.61,1.08,4.12,4.12,0,0,1,.21,1.33c0,.17,0,.35,0,.51s0,.31,0,.41Zm2.77-1.36a1.77,1.77,0,0,0-.36-1.06,1.14,1.14,0,0,0-.94-.4,1.38,1.38,0,0,0-1,.38A1.83,1.83,0,0,0,30,7.37Z"/><path class="cls-4" d="M36.31,6.07h-.89l-.07-.27,2.57-3.27h.31V4.59h1.65a3.26,3.26,0,0,1,.06.38c0,.1,0,.22,0,.34s0,.25,0,.37a3.1,3.1,0,0,1-.06.39H38.23V8.85a2.61,2.61,0,0,0,.07.69.93.93,0,0,0,.2.41.57.57,0,0,0,.32.2,1.44,1.44,0,0,0,.45.06,1.75,1.75,0,0,0,.4,0l.35-.06a3.58,3.58,0,0,1,.14.54c0,.19,0,.36,0,.5a1.78,1.78,0,0,1,0,.25l0,.2a5.57,5.57,0,0,1-1.3.15,2.77,2.77,0,0,1-1.9-.58,2.41,2.41,0,0,1-.66-1.89Z"/><path class="cls-4" d="M41.55,6.07h-.88L40.6,5.8l2.56-3.27h.31V4.59h1.66a3.07,3.07,0,0,1,0,.38c0,.1,0,.22,0,.34s0,.25,0,.37a3,3,0,0,1,0,.39H43.47V8.85a2.61,2.61,0,0,0,.07.69,1,1,0,0,0,.2.41.6.6,0,0,0,.32.2,1.53,1.53,0,0,0,.45.06,1.9,1.9,0,0,0,.41,0l.34-.06a2.69,2.69,0,0,1,.14.54,3.22,3.22,0,0,1,0,.5v.25l0,.2a5.49,5.49,0,0,1-1.29.15,2.78,2.78,0,0,1-1.91-.58,2.41,2.41,0,0,1-.66-1.89Z"/><path class="cls-4" d="M48.15,8.73a1.51,1.51,0,0,0,.58,1.19,2.29,2.29,0,0,0,1.37.37,5.26,5.26,0,0,0,.95-.09A5.41,5.41,0,0,0,52,10a3,3,0,0,1,.26.65,3.6,3.6,0,0,1,.13.83,6.81,6.81,0,0,1-2.41.41,4.67,4.67,0,0,1-1.69-.28,2.86,2.86,0,0,1-1.15-.76,3,3,0,0,1-.66-1.16,4.81,4.81,0,0,1-.21-1.46,4.91,4.91,0,0,1,.21-1.46,3.5,3.5,0,0,1,.66-1.2,3.16,3.16,0,0,1,1.06-.8,3.63,3.63,0,0,1,1.49-.29A3.19,3.19,0,0,1,51,4.69a2.81,2.81,0,0,1,1,.71,3,3,0,0,1,.61,1.08,4.12,4.12,0,0,1,.21,1.33c0,.17,0,.35,0,.51s0,.31,0,.41Zm2.78-1.36a1.77,1.77,0,0,0-.36-1.06,1.15,1.15,0,0,0-.94-.4,1.37,1.37,0,0,0-1,.38,1.77,1.77,0,0,0-.42,1.08Z"/></g></svg>