<?xml version="1.0" encoding="UTF-8"?>
<svg viewBox="0 0 22.23 12.76" xmlns="http://www.w3.org/2000/svg">
<rect width="22.23" height="12.76" rx="3.44" fill="#8e5928"/>
<path d="M8.72,9.19v.88H3.79a1.54,1.54,0,0,1,.1-.64,3.32,3.32,0,0,1,.61-1A8,8,0,0,1,5.7,7.31,9.88,9.88,0,0,0,7.34,5.72a1.86,1.86,0,0,0,.43-1.1,1.23,1.23,0,0,0-.39-.92,1.41,1.41,0,0,0-1-.37,1.47,1.47,0,0,0-1.07.39,1.55,1.55,0,0,0-.4,1.11L4,4.73a2.3,2.3,0,0,1,.73-1.61,2.48,2.48,0,0,1,1.69-.55,2.43,2.43,0,0,1,1.71.59,2,2,0,0,1,.62,1.48,2.23,2.23,0,0,1-.18.88A3.35,3.35,0,0,1,8,6.44,13.83,13.83,0,0,1,6.51,7.75c-.55.46-.91.78-1.06.94a2.69,2.69,0,0,0-.39.5Z" fill="#fff"/>
<path d="M9.45,6.39a7,7,0,0,1,.27-2.14A2.55,2.55,0,0,1,10.53,3a2,2,0,0,1,1.35-.44,2.17,2.17,0,0,1,1.06.24,1.94,1.94,0,0,1,.75.7,3.73,3.73,0,0,1,.46,1.11,7.54,7.54,0,0,1,.17,1.77,6.9,6.9,0,0,1-.27,2.12,2.69,2.69,0,0,1-.81,1.25,2.09,2.09,0,0,1-1.36.44,2,2,0,0,1-1.7-.78A4.93,4.93,0,0,1,9.45,6.39Zm.94,0a4.66,4.66,0,0,0,.43,2.44,1.28,1.28,0,0,0,2.18,0,4.66,4.66,0,0,0,.43-2.44A4.75,4.75,0,0,0,13,3.93a1.28,1.28,0,0,0-1.08-.6,1.21,1.21,0,0,0-1,.53A4.82,4.82,0,0,0,10.39,6.39Z" fill="#fff"/>
<path d="M18.45,10.07h-.92V4.22a4.25,4.25,0,0,1-.87.64,5.36,5.36,0,0,1-1,.47V4.44A5.41,5.41,0,0,0,17,3.57a3.6,3.6,0,0,0,.82-1h.59Z" fill="#fff"/>
</svg>
