<?xml version="1.0" encoding="UTF-8"?>
<svg id="a" data-name="Calque 1" xmlns="http://www.w3.org/2000/svg" xmlns:xlink="http://www.w3.org/1999/xlink" viewBox="0 0 42.47 31.86">
  <defs>
    <clipPath id="b">
      <rect width="42.47" height="31.86" fill="#00a98b"/>
    </clipPath>
    <clipPath id="c">
      <rect y="0" width="42.47" height="31.86" fill="#00a98b"/>
    </clipPath>
  </defs>
  <rect width="42.47" height="31.86" fill="#00a98b"/>
  <g clip-path="url(#b)" fill="none">
    <rect y="0" width="42.47" height="31.85" fill="#00a98b"/>
    <g>
      <rect y="0" width="42.47" height="31.86" fill="#00a98b"/>
      <g clip-path="url(#c)" fill="none">
        <path d="m3.87,22.11l8.86-7.96c.9-.84,2.03-1.8,2.03-3.19,0-1.55-1.32-2.48-2.8-2.48-1.77,0-2.83,1.26-2.96,2.9l-4.83-.35c.29-4.7,3.58-6.99,8.05-6.99,4.15,0,7.38,2.29,7.38,6.86,0,2.93-1.26,4.61-3,6.12l-6.93,5.96h10.12v4.25H3.87v-5.12Z" fill="#fff"/>
        <path d="m30.9,4.04c4.19,0,7.63,2.09,7.63,6.28,0,2.48-1.42,4.35-3.87,5.06v.06c2.74.74,4.25,2.7,4.25,5.54,0,4.41-3.8,6.64-8.02,6.64s-8.02-2.22-8.02-6.64c0-2.84,1.51-4.8,4.25-5.54v-.06c-2.45-.71-3.86-2.58-3.86-5.06,0-4.19,3.45-6.28,7.63-6.28m0,19.13c1.9,0,3.19-1.29,3.19-2.87s-1.29-2.9-3.19-2.9-3.19,1.29-3.19,2.9,1.29,2.87,3.19,2.87m0-9.63c1.68,0,2.8-1.13,2.8-2.55s-1.13-2.51-2.8-2.51-2.8,1.13-2.8,2.51,1.13,2.55,2.8,2.55" fill="#fff"/>
      </g>
    </g>
  </g>
</svg>