<?xml version="1.0" encoding="UTF-8"?>
<svg id="a" data-name="Calque 1" xmlns="http://www.w3.org/2000/svg" xmlns:xlink="http://www.w3.org/1999/xlink" viewBox="0 0 42.47 31.86">
  <defs>
    <clipPath id="b">
      <rect width="42.47" height="31.86" fill="#00a98b"/>
    </clipPath>
    <clipPath id="c">
      <rect y="0" width="42.47" height="31.86" fill="#00a98b"/>
    </clipPath>
  </defs>
  <rect width="42.47" height="31.86" fill="#00a98b"/>
  <g clip-path="url(#b)" fill="none">
    <rect y="0" width="42.47" height="31.85" fill="#00a98b"/>
    <g>
      <rect y="0" width="42.47" height="31.86" fill="#00a98b"/>
      <g clip-path="url(#c)" fill="none">
        <path d="m3.87,22.11l8.86-7.96c.9-.84,2.03-1.8,2.03-3.19,0-1.55-1.32-2.48-2.8-2.48-1.77,0-2.83,1.26-2.96,2.9l-4.83-.35c.29-4.7,3.58-6.99,8.05-6.99,4.15,0,7.38,2.29,7.38,6.86,0,2.93-1.26,4.61-3,6.12l-6.93,5.96h10.12v4.25H3.87v-5.12Z" fill="#fff"/>
        <path d="m31.19,19.08c-.52.13-1.03.23-1.58.23-4.28,0-7.15-3.29-7.15-7.44,0-4.7,3.74-7.83,8.5-7.83s8.5,3.12,8.5,7.83c0,3.29-1.29,5.28-2.74,7.57l-4.99,7.79h-5.89l5.35-8.15Zm-.23-3.45c2.16,0,3.67-1.51,3.67-3.58s-1.51-3.58-3.67-3.58-3.67,1.51-3.67,3.58,1.51,3.58,3.67,3.58" fill="#fff"/>
      </g>
    </g>
  </g>
</svg>