<?xml version="1.0" encoding="UTF-8"?>
<svg viewBox="0 0 22.34 12.99" xmlns="http://www.w3.org/2000/svg">
<rect width="22.34" height="12.99" rx="2.67" fill="#e7344c"/>
<path d="M2.75,8.27l1-.13a2.09,2.09,0,0,0,.5,1.16,1.36,1.36,0,0,0,1,.36,1.5,1.5,0,0,0,1.13-.47A1.54,1.54,0,0,0,6.8,8,1.47,1.47,0,0,0,5.36,6.5H5.29a3,3,0,0,0-.67.11l.11-.83h.15A2,2,0,0,0,6,5.51a1.07,1.07,0,0,0,.48-1,1.18,1.18,0,0,0-.35-.87,1.28,1.28,0,0,0-.91-.34,1.31,1.31,0,0,0-.92.35,1.71,1.71,0,0,0-.48,1l-.94-.17A2.44,2.44,0,0,1,3.66,3,2.32,2.32,0,0,1,5.2,2.48a2.6,2.6,0,0,1,1.16.27,1.93,1.93,0,0,1,1.1,1.74,1.64,1.64,0,0,1-.27.91,1.88,1.88,0,0,1-.8.65,1.86,1.86,0,0,1,1.07.66A2,2,0,0,1,7.81,8a2.29,2.29,0,0,1-.74,1.72,2.56,2.56,0,0,1-1.86.7,2.44,2.44,0,0,1-1.69-.6A2.32,2.32,0,0,1,2.75,8.27Z" fill="#fff"/>
<path d="M8.48,6.5a6.88,6.88,0,0,1,.28-2.21A2.7,2.7,0,0,1,9.59,3,2.16,2.16,0,0,1,11,2.55a2.3,2.3,0,0,1,1.09.25,2.16,2.16,0,0,1,.78.72,4,4,0,0,1,.48,1.15,8.05,8.05,0,0,1,.17,1.83,7,7,0,0,1-.28,2.19A2.66,2.66,0,0,1,12.4,10a2.17,2.17,0,0,1-1.41.46,2.1,2.1,0,0,1-1.75-.81A5,5,0,0,1,8.48,6.5Zm1,0A5,5,0,0,0,9.89,9a1.34,1.34,0,0,0,1.1.63A1.28,1.28,0,0,0,12.09,9a4.75,4.75,0,0,0,.45-2.52A4.82,4.82,0,0,0,12.09,4,1.32,1.32,0,0,0,11,3.34a1.2,1.2,0,0,0-1,.55A4.93,4.93,0,0,0,9.45,6.5Z" fill="#fff"/>
<path d="M17.6,10.27V8.42H14.25V7.55l3.52-5h.78v5h1v.87h-1v1.85Zm0-2.72V4.07L15.18,7.55Z" fill="#fff"/>
</svg>
