<?xml version="1.0" encoding="UTF-8"?>
<svg viewBox="0 0 22.23 12.77" xmlns="http://www.w3.org/2000/svg">
<rect width="22.23" height="12.77" rx="3.44" fill="#5eb3e4"/>
<path d="M6,10.07V8.28H2.75V7.44L6.16,2.6h.75V7.44h1v.84h-1v1.79ZM6,7.44V4.07L3.65,7.44Z" fill="#fff"/>
<path d="M8.85,6.39a6.74,6.74,0,0,1,.28-2.14A2.62,2.62,0,0,1,9.94,3a2,2,0,0,1,1.35-.44,2.29,2.29,0,0,1,1.06.24,2.19,2.19,0,0,1,.75.7,3.73,3.73,0,0,1,.46,1.11,7.54,7.54,0,0,1,.17,1.77,6.9,6.9,0,0,1-.27,2.12,2.69,2.69,0,0,1-.81,1.25,2.09,2.09,0,0,1-1.36.44,2,2,0,0,1-1.7-.78A4.87,4.87,0,0,1,8.85,6.39Zm1,0a4.7,4.7,0,0,0,.43,2.45A1.23,1.23,0,0,0,12,9.28a1.32,1.32,0,0,0,.44-.44,4.57,4.57,0,0,0,.44-2.44,4.64,4.64,0,0,0-.44-2.46,1.26,1.26,0,0,0-1.07-.6,1.21,1.21,0,0,0-1,.53A4.69,4.69,0,0,0,9.8,6.39Z" fill="#fff"/>
<path d="M19.48,9.19v.88H14.54a1.72,1.72,0,0,1,.11-.64,3.91,3.91,0,0,1,.6-1A9.25,9.25,0,0,1,16.46,7.3,11.14,11.14,0,0,0,18.1,5.72a1.86,1.86,0,0,0,.43-1.1,1.23,1.23,0,0,0-.39-.92,1.41,1.41,0,0,0-1-.37,1.44,1.44,0,0,0-1.06.39,1.51,1.51,0,0,0-.4,1.11l-.94-.1a2.34,2.34,0,0,1,.72-1.61,2.49,2.49,0,0,1,1.7-.55,2.41,2.41,0,0,1,1.7.59,2,2,0,0,1,.63,1.48,2.25,2.25,0,0,1-.18.89,3.72,3.72,0,0,1-.61.91,14.69,14.69,0,0,1-1.42,1.31c-.55.46-.9.78-1.06.94a3.14,3.14,0,0,0-.38.5Z" fill="#fff"/>
</svg>
