<?xml version="1.0" encoding="UTF-8"?>
<svg viewBox="0 0 22.23 12.76" xmlns="http://www.w3.org/2000/svg">
<rect width="22.23" height="12.76" rx="3.44" fill="#b68400"/>
<path d="M6,10.07V8.28H2.73V7.44L6.14,2.6h.74V7.44h1v.84h-1v1.79ZM6,7.44V4.07L3.63,7.44Z" fill="#fff"/>
<path d="M8.83,6.39A7,7,0,0,1,9.1,4.25,2.74,2.74,0,0,1,9.91,3a2,2,0,0,1,1.36-.44,2.13,2.13,0,0,1,1.05.24,1.87,1.87,0,0,1,.75.7,4,4,0,0,1,.47,1.11,7.53,7.53,0,0,1,.16,1.77,6.9,6.9,0,0,1-.27,2.12,2.78,2.78,0,0,1-.8,1.25,2.09,2.09,0,0,1-1.36.44,2,2,0,0,1-1.7-.78A4.87,4.87,0,0,1,8.83,6.39Zm.94,0a4.66,4.66,0,0,0,.43,2.44,1.29,1.29,0,0,0,1.07.61,1.27,1.27,0,0,0,1.06-.61,4.66,4.66,0,0,0,.43-2.44,4.75,4.75,0,0,0-.43-2.46,1.26,1.26,0,0,0-1.07-.6,1.21,1.21,0,0,0-1,.53A4.81,4.81,0,0,0,9.77,6.39Z" fill="#fff"/>
<path d="M17.58,10.07V8.28H14.34V7.44L17.75,2.6h.75V7.44h1v.84h-1v1.79Zm0-2.63V4.07L15.24,7.44Z" fill="#fff"/>
</svg>
