<?xml version="1.0" encoding="UTF-8"?>
<svg viewBox="0 0 22.34 12.99" xmlns="http://www.w3.org/2000/svg">
<rect width="22.34" height="12.99" rx="2.67" fill="#62b452"/>
<path d="M6.14,7.41V4.17L3.87,7.41Zm0,2.53V8.22H3V7.41L6.3,2.75H7V7.41H8v.81H7V9.94Z" fill="#fff"/>
<path d="M9.83,6.35a4.43,4.43,0,0,0,.42,2.35,1.24,1.24,0,0,0,1,.59,1.25,1.25,0,0,0,1-.59,4.42,4.42,0,0,0,.41-2.35A4.42,4.42,0,0,0,12.31,4a1.24,1.24,0,0,0-1-.58,1.14,1.14,0,0,0-1,.51,4.44,4.44,0,0,0-.46,2.43m-.92,0a6.16,6.16,0,0,1,.27-2A2.49,2.49,0,0,1,10,3.1a2,2,0,0,1,1.32-.42,2.29,2.29,0,0,1,1,.23,2.13,2.13,0,0,1,.73.67,3.74,3.74,0,0,1,.45,1.07,7.48,7.48,0,0,1,.16,1.7,6.74,6.74,0,0,1-.26,2,2.56,2.56,0,0,1-.79,1.2A2,2,0,0,1,11.3,10a2,2,0,0,1-1.65-.75,4.69,4.69,0,0,1-.72-2.92" fill="#fff"/>
<path d="M15.58,7.56a2.06,2.06,0,0,0,.2.88,1.46,1.46,0,0,0,.55.63,1.36,1.36,0,0,0,.73.22,1.29,1.29,0,0,0,1-.45,1.77,1.77,0,0,0,.41-1.23A1.68,1.68,0,0,0,18,6.44a1.37,1.37,0,0,0-2,0,1.51,1.51,0,0,0-.43,1.12m3.64-3.09-.89.07A1.86,1.86,0,0,0,18,3.78a1.3,1.3,0,0,0-1.64-.14,2,2,0,0,0-.66.89,4.47,4.47,0,0,0-.25,1.66,1.93,1.93,0,0,1,.78-.72,2.17,2.17,0,0,1,1-.24,2,2,0,0,1,1.51.65,2.28,2.28,0,0,1,.63,1.68,2.75,2.75,0,0,1-.3,1.26,2.11,2.11,0,0,1-.81.89A2.24,2.24,0,0,1,17.1,10a2.31,2.31,0,0,1-1.82-.82,4.15,4.15,0,0,1-.7-2.67,4.75,4.75,0,0,1,.78-3,2.24,2.24,0,0,1,1.82-.82,2.08,2.08,0,0,1,1.4.47,2,2,0,0,1,.66,1.32" fill="#fff"/>
</svg>
