<?xml version="1.0" encoding="UTF-8"?>
<svg viewBox="0 0 22.23 12.76" xmlns="http://www.w3.org/2000/svg">
<rect width="22.23" height="12.76" rx="3.44" fill="#e1251b"/>
<path d="M2.9,8.11,3.9,8a1.78,1.78,0,0,0,.5,1.06,1.36,1.36,0,0,0,.94.35,1.42,1.42,0,0,0,1.12-.5,1.83,1.83,0,0,0,.46-1.32,1.71,1.71,0,0,0-.44-1.24,1.54,1.54,0,0,0-1.15-.45,1.49,1.49,0,0,0-.8.2A1.5,1.5,0,0,0,4,6.65L3.1,6.54,3.79,2.7H7.5v.88h-3l-.4,2a2.38,2.38,0,0,1,1.41-.46,2.26,2.26,0,0,1,1.65.67,2.39,2.39,0,0,1,.68,1.75,2.7,2.7,0,0,1-.6,1.75,2.33,2.33,0,0,1-2,.91,2.39,2.39,0,0,1-1.66-.57A2.23,2.23,0,0,1,2.9,8.11Z" fill="#fff"/>
<path d="M8.7,6.38A7,7,0,0,1,9,4.25,2.63,2.63,0,0,1,9.79,3a2,2,0,0,1,1.35-.44,2.29,2.29,0,0,1,1.06.24,1.94,1.94,0,0,1,.75.7,3.73,3.73,0,0,1,.46,1.11,7.45,7.45,0,0,1,.17,1.76,7,7,0,0,1-.27,2.13,2.69,2.69,0,0,1-.81,1.25,2.09,2.09,0,0,1-1.36.44,2,2,0,0,1-1.7-.78A4.9,4.9,0,0,1,8.7,6.38Zm1,0a4.7,4.7,0,0,0,.43,2.45,1.23,1.23,0,0,0,1.68.44,1.32,1.32,0,0,0,.44-.44,4.6,4.6,0,0,0,.44-2.45,4.6,4.6,0,0,0-.44-2.45,1.26,1.26,0,0,0-1.07-.6,1.16,1.16,0,0,0-1,.53,4.8,4.8,0,0,0-.53,2.52Z" fill="#fff"/>
<path d="M19.33,9.19v.88H14.39a1.72,1.72,0,0,1,.11-.64,3.64,3.64,0,0,1,.6-1A9.17,9.17,0,0,1,16.3,7.3,10.18,10.18,0,0,0,18,5.72a1.86,1.86,0,0,0,.43-1.1A1.22,1.22,0,0,0,18,3.7a1.41,1.41,0,0,0-1-.37,1.44,1.44,0,0,0-1.06.39,1.51,1.51,0,0,0-.4,1.11l-.94-.1a2.26,2.26,0,0,1,.73-1.61A2.46,2.46,0,0,1,17,2.57a2.41,2.41,0,0,1,1.7.59,2,2,0,0,1,.63,1.48,2.23,2.23,0,0,1-.18.88,3.35,3.35,0,0,1-.61.92,17.62,17.62,0,0,1-1.42,1.31c-.55.46-.9.78-1.06.94a3.14,3.14,0,0,0-.38.5Z" fill="#fff"/>
</svg>
