<?xml version="1.0" encoding="UTF-8"?>
<svg viewBox="0 0 22.23 12.76" xmlns="http://www.w3.org/2000/svg">
<rect width="22.23" height="12.76" rx="3.44" fill="#00754a"/>
<path d="M2.86,8.11l1-.08a1.78,1.78,0,0,0,.5,1.06,1.36,1.36,0,0,0,.94.35,1.49,1.49,0,0,0,1.12-.5,1.83,1.83,0,0,0,.46-1.32A1.69,1.69,0,0,0,6.4,6.38a1.51,1.51,0,0,0-1.15-.46,1.59,1.59,0,0,0-.8.21,1.47,1.47,0,0,0-.56.52L3,6.54,3.75,2.7H7.46v.87h-3l-.4,2A2.46,2.46,0,0,1,5.47,5.1a2.23,2.23,0,0,1,1.65.68,2.34,2.34,0,0,1,.67,1.74A2.68,2.68,0,0,1,7.2,9.28a2.36,2.36,0,0,1-2,.9,2.46,2.46,0,0,1-1.6-.56A2.21,2.21,0,0,1,2.86,8.11Z" fill="#fff"/>
<path d="M8.67,6.38a7,7,0,0,1,.27-2.13A2.69,2.69,0,0,1,9.75,3a2.06,2.06,0,0,1,1.35-.43,2.17,2.17,0,0,1,1.06.24,1.94,1.94,0,0,1,.75.7,3.73,3.73,0,0,1,.46,1.11,7.45,7.45,0,0,1,.17,1.76,7,7,0,0,1-.27,2.13,2.71,2.71,0,0,1-.81,1.24,2,2,0,0,1-1.36.44,2.06,2.06,0,0,1-1.7-.77A4.92,4.92,0,0,1,8.67,6.38Zm.94,0A4.69,4.69,0,0,0,10,8.83a1.27,1.27,0,0,0,1.06.61,1.29,1.29,0,0,0,1.07-.61,4.7,4.7,0,0,0,.43-2.45,4.7,4.7,0,0,0-.43-2.45,1.31,1.31,0,0,0-1.08-.61,1.19,1.19,0,0,0-1,.54A4.88,4.88,0,0,0,9.61,6.38Z" fill="#fff"/>
<path d="M14.48,8.09,15.39,8a2.1,2.1,0,0,0,.54,1.13,1.32,1.32,0,0,0,.93.34A1.45,1.45,0,0,0,18,9a1.49,1.49,0,0,0,.45-1.11,1.38,1.38,0,0,0-.42-1A1.42,1.42,0,0,0,17,6.48a2.31,2.31,0,0,0-.64.1l.1-.81h.15a2,2,0,0,0,1.05-.31,1,1,0,0,0,.47-.94,1.1,1.1,0,0,0-.34-.84,1.33,1.33,0,0,0-1.77,0,1.58,1.58,0,0,0-.46,1l-.92-.17a2.4,2.4,0,0,1,.76-1.43,2.24,2.24,0,0,1,1.49-.5A2.31,2.31,0,0,1,18,2.84a1.85,1.85,0,0,1,1,1.67,1.62,1.62,0,0,1-.26.88A1.76,1.76,0,0,1,18,6a1.75,1.75,0,0,1,1,.63,1.89,1.89,0,0,1,.37,1.21,2.18,2.18,0,0,1-.72,1.66,2.5,2.5,0,0,1-1.8.68,2.33,2.33,0,0,1-1.63-.59A2.27,2.27,0,0,1,14.48,8.09Z" fill="#fff"/>
</svg>
