<?xml version="1.0" encoding="UTF-8"?>
<svg viewBox="0 0 22.23 12.76" xmlns="http://www.w3.org/2000/svg">
<rect width="22.23" height="12.76" rx="3.44" fill="#a09857"/>
<path d="M2.88,8.11l1-.08a1.77,1.77,0,0,0,.49,1.06,1.41,1.41,0,0,0,1,.35,1.45,1.45,0,0,0,1.12-.5A1.89,1.89,0,0,0,7,7.62a1.71,1.71,0,0,0-.44-1.24,1.57,1.57,0,0,0-1.16-.45A1.58,1.58,0,0,0,4,6.65L3,6.54,3.76,2.7H7.48v.88h-3l-.41,2A2.47,2.47,0,0,1,5.5,5.11a2.26,2.26,0,0,1,1.66.68,2.38,2.38,0,0,1,.67,1.75,2.78,2.78,0,0,1-.59,1.75,2.38,2.38,0,0,1-2,.91,2.37,2.37,0,0,1-1.67-.58A2.18,2.18,0,0,1,2.88,8.11Z" fill="#fff"/>
<path d="M8.68,6.38A6.71,6.71,0,0,1,9,4.25,2.57,2.57,0,0,1,9.76,3a2,2,0,0,1,1.36-.44,2.13,2.13,0,0,1,1.05.24,1.94,1.94,0,0,1,.75.7,4,4,0,0,1,.47,1.11,7.44,7.44,0,0,1,.16,1.76,7,7,0,0,1-.27,2.13,2.69,2.69,0,0,1-.81,1.25,2,2,0,0,1-1.35.44,2,2,0,0,1-1.7-.78A4.9,4.9,0,0,1,8.68,6.38Zm.94,0a4.7,4.7,0,0,0,.43,2.45,1.23,1.23,0,0,0,1.68.45,1.21,1.21,0,0,0,.45-.45,4.7,4.7,0,0,0,.43-2.45,4.7,4.7,0,0,0-.43-2.45,1.28,1.28,0,0,0-1.07-.6,1.16,1.16,0,0,0-1,.53A4.77,4.77,0,0,0,9.62,6.38Z" fill="#fff"/>
<path d="M17.43,10.07V8.28H14.18V7.44L17.59,2.6h.75V7.44h1v.84h-1v1.79Zm0-2.63V4.07L15.09,7.44Z" fill="#fff"/>
</svg>
