<?xml version="1.0" encoding="UTF-8"?>
<svg viewBox="0 0 22.34 12.99" xmlns="http://www.w3.org/2000/svg">
<rect width="22.34" height="12.99" rx="2.67" fill="#1082c6"/>
<path d="M2.75,8.22l1-.08a1.76,1.76,0,0,0,.5,1.06,1.31,1.31,0,0,0,.94.35,1.45,1.45,0,0,0,1.12-.5,1.89,1.89,0,0,0,.46-1.32A1.7,1.7,0,0,0,6.29,6.5,1.52,1.52,0,0,0,5.13,6a1.58,1.58,0,0,0-1.36.73l-.86-.12.73-3.83H7.35V3.7h-3L4,5.7a2.46,2.46,0,0,1,1.41-.47A2.27,2.27,0,0,1,7,5.91a2.41,2.41,0,0,1,.7,1.74A2.78,2.78,0,0,1,7.11,9.4a2.38,2.38,0,0,1-2,.91,2.39,2.39,0,0,1-1.66-.57A2.25,2.25,0,0,1,2.75,8.22Z" fill="#fff"/>
<path d="M8.82,6.63A7,7,0,0,1,9.09,4.5,2.71,2.71,0,0,1,9.9,3.26a2,2,0,0,1,1.35-.44,2.13,2.13,0,0,1,1.05.24,2.19,2.19,0,0,1,.75.7,3.73,3.73,0,0,1,.46,1.11,7.45,7.45,0,0,1,.17,1.76,6.9,6.9,0,0,1-.27,2.12A2.55,2.55,0,0,1,12.6,10a2,2,0,0,1-1.35.44,2.06,2.06,0,0,1-1.7-.77A5,5,0,0,1,8.82,6.63Zm.94,0a4.7,4.7,0,0,0,.43,2.45,1.23,1.23,0,0,0,2.12,0,4.7,4.7,0,0,0,.43-2.45,4.66,4.66,0,0,0-.43-2.44,1.29,1.29,0,0,0-1.07-.61,1.21,1.21,0,0,0-1,.53A4.67,4.67,0,0,0,9.76,6.63Z" fill="#fff"/>
<path d="M19.53,4.68l-.91.07A1.62,1.62,0,0,0,18.27,4a1.2,1.2,0,0,0-.91-.4,1.31,1.31,0,0,0-.77.25,2.14,2.14,0,0,0-.68.92,4.85,4.85,0,0,0-.26,1.73,2.08,2.08,0,0,1,.81-.75,2.18,2.18,0,0,1,1-.25A2.09,2.09,0,0,1,19,6.15a2.39,2.39,0,0,1,.64,1.74,3,3,0,0,1-.3,1.31,2.24,2.24,0,0,1-.83.92,2.21,2.21,0,0,1-1.2.32,2.35,2.35,0,0,1-1.87-.84,4.29,4.29,0,0,1-.72-2.78,5,5,0,0,1,.8-3.14,2.27,2.27,0,0,1,1.87-.86,2.12,2.12,0,0,1,1.45.5A2.07,2.07,0,0,1,19.53,4.68ZM15.79,7.9a2.15,2.15,0,0,0,.2.9,1.57,1.57,0,0,0,.56.66,1.38,1.38,0,0,0,.76.23,1.29,1.29,0,0,0,1-.47A1.87,1.87,0,0,0,18.73,8a1.71,1.71,0,0,0-.41-1.22,1.44,1.44,0,0,0-2,0l-.05,0A1.55,1.55,0,0,0,15.79,7.9Z" fill="#fff"/>
</svg>
