<?xml version="1.0" encoding="UTF-8"?>
<svg id="a" data-name="Calque 1" xmlns="http://www.w3.org/2000/svg" xmlns:xlink="http://www.w3.org/1999/xlink" viewBox="0 0 42.59 31.87">
  <defs>
    <clipPath id="b">
      <rect width="42.59" height="31.87" fill="#0c324c"/>
    </clipPath>
    <clipPath id="c">
      <rect y="0" width="42.59" height="31.87" fill="#0c324c"/>
    </clipPath>
  </defs>
  <g>
    <rect width="42.59" height="31.87" fill="#0c324c"/>
    <g clip-path="url(#b)" fill="none">
      <rect y="0" width="42.49" height="31.87" fill="#0c324c"/>
      <rect x=".09" y="0" width="42.49" height="31.87" fill="#0c324c"/>
      <g>
        <rect y="0" width="42.59" height="31.87" fill="#0c324c"/>
        <g clip-path="url(#c)" fill="none">
          <path d="m10.22,28.47c-1.73-1.21-2.83-2.82-3.21-4.91-.47-2.61.28-4.85,2.11-6.73.35-.36.39-.61.19-1.05-.61-1.39-.99-2.83-.74-4.38.06-.39.19-.71.6-.84.43-.14.73.05,1,.37,1.07,1.25,2.38,2.15,3.95,2.66.6.2,1.12.18,1.73-.16,3.69-2.05,7.38-1.97,10.99.21.4.24.76.11,1.1.02,1.62-.48,3.02-1.34,4.12-2.64.28-.33.56-.61,1.05-.48.47.13.58.49.64.91.21,1.44-.14,2.8-.65,4.13-.1.26-.22.51-.32.75.44.52.92,1,1.29,1.55,2.42,3.59,1.57,8.1-2,10.57,0,0-.87.64-1.95.97-2.48.69-4.72.27-6.78-1.19-.51.72-1,1.43-1.5,2.12-.33.46-.83.53-1.23.18-.13-.12-.24-.28-.35-.43-.44-.62-.87-1.25-1.23-1.76-.78.33-1.53.65-2.26.96-.8.34-1.67.48-2.53.4-1.12-.1-2.68-.4-4.03-1.24m4.21-.37c3.28,0,5.92-2.64,5.92-5.9,0-3.24-2.69-5.92-5.93-5.91-3.26.01-5.93,2.68-5.92,5.92,0,3.26,2.66,5.9,5.93,5.89m7.56-5.91c-.02,3.24,2.6,5.88,5.85,5.91,3.26.03,5.95-2.57,5.98-5.79.03-3.29-2.6-6-5.86-6.02-3.31-.02-5.94,2.59-5.97,5.89m-1.8,4.95c.31.44.63.89.96,1.37.34-.48.66-.94.97-1.38-.34-.51-.65-.99-.96-1.46-.32.48-.63.95-.97,1.47" fill="#fff"/>
          <path d="m16.69,22.23c0,1.31-1.06,2.37-2.37,2.37s-2.37-1.06-2.37-2.37,1.06-2.37,2.37-2.37,2.37,1.06,2.37,2.37" fill="#fff"/>
          <path d="m13.34,23.92c-.89.05-1.66-.64-1.71-1.53-.05-.89.64-1.66,1.53-1.7.89-.05,1.66.64,1.7,1.53.05.89-.64,1.66-1.53,1.7" fill="#0c324c"/>
          <path d="m30.12,22.23c0,1.31-1.06,2.37-2.37,2.37s-2.37-1.06-2.37-2.37,1.06-2.37,2.37-2.37,2.37,1.06,2.37,2.37" fill="#fff"/>
          <path d="m26.77,23.92c-.89.05-1.66-.64-1.71-1.53-.05-.89.64-1.66,1.53-1.7.89-.05,1.66.64,1.7,1.53.05.89-.64,1.66-1.53,1.7" fill="#0c324c"/>
        </g>
      </g>
    </g>
  </g>
  <g>
    <path d="m8.85,2.52c.27,0,.39.28.39.55,0,.29-.14.56-.39.56h-1.38v5.43c0,.26-.31.39-.62.39s-.62-.13-.62-.39V3.63h-1.39c-.25,0-.39-.26-.39-.56,0-.27.12-.55.39-.55h4.01Z" fill="#fff"/>
    <path d="m9.91,2.91c0-.26.27-.39.54-.39h1.83c.99,0,1.91.32,1.91,1.67,0,.78-.3,1.29-.81,1.51.58.23.98.6.98,1.55v.2c0,1.48-.83,2.01-1.9,2.01h-2.01c-.33,0-.54-.18-.54-.38V2.91Zm1.22,2.3h1.06c.51,0,.76-.33.76-.82s-.28-.8-.77-.8h-1.05v1.61Zm1.07,3.16c.58,0,.92-.31.92-1.03v-.15c0-.74-.34-1-.92-1h-1.07v2.19h1.07Z" fill="#fff"/>
    <path d="m15.38,9.42V2.58h.97l2.19,3.46c.51.8.9,1.52,1.23,2.22h.02c-.08-.92-.1-1.76-.1-2.82v-2.87h.83v6.85h-.89l-2.17-3.47c-.48-.76-.93-1.54-1.28-2.29h-.03c.05.87.07,1.7.07,2.83v2.93h-.83Z" fill="#fff"/>
    <path d="m23.13,3.13c.01.3-.21.55-.57.55-.31,0-.54-.24-.54-.55s.23-.56.56-.56.55.24.55.56Zm-.99,6.3v-4.92h.89v4.92h-.89Z" fill="#fff"/>
    <path d="m28.75,4.51c-.02.36-.04.75-.04,1.35v2.85c0,1.13-.22,1.82-.7,2.25-.48.45-1.17.59-1.79.59s-1.24-.14-1.64-.41l.22-.68c.32.2.83.39,1.44.39.91,0,1.58-.48,1.58-1.72v-.55h-.02c-.28.46-.8.82-1.56.82-1.22,0-2.09-1.04-2.09-2.4,0-1.67,1.09-2.61,2.22-2.61.85,0,1.32.45,1.53.85h.02l.04-.74h.78Zm-.93,1.94c0-.15,0-.28-.05-.41-.16-.52-.6-.95-1.25-.95-.85,0-1.46.72-1.46,1.86,0,.97.49,1.77,1.45,1.77.55,0,1.05-.35,1.24-.91.05-.15.07-.32.07-.48v-.88Z" fill="#fff"/>
    <path d="m30.18,2.21h.89v3.07h.02c.14-.25.37-.48.64-.63.26-.15.58-.25.91-.25.66,0,1.72.41,1.72,2.1v2.93h-.89v-2.82c0-.79-.29-1.46-1.14-1.46-.58,0-1.04.41-1.2.89-.05.12-.06.25-.06.43v2.97h-.89V2.21Z" fill="#fff"/>
    <path d="m36.85,3.1v1.41h1.28v.68h-1.28v2.65c0,.61.17.95.67.95.23,0,.41-.03.52-.06l.04.67c-.17.07-.45.12-.79.12-.42,0-.75-.13-.96-.38-.25-.26-.35-.7-.35-1.28v-2.68h-.76v-.68h.76v-1.18l.87-.23Z" fill="#fff"/>
  </g>
</svg>