<?xml version="1.0" encoding="UTF-8"?>
<svg viewBox="0 0 55.2 55.2" xmlns="http://www.w3.org/2000/svg">
<path d="M55.2,27.6A27.6,27.6,0,1,1,27.6,0,27.59,27.59,0,0,1,55.2,27.6" fill="#da003e"/>
<path d="M19.4,13.1l3-.3c1.1-.1,2.6-.1,4.3-.1a20.24,20.24,0,0,1,4.3.4,12,12,0,0,1,3.5,1.2,6.89,6.89,0,0,1,2.4,2.4,7,7,0,0,1,.9,3.7,6.05,6.05,0,0,1-.4,2.4,12.44,12.44,0,0,1-1,2,5,5,0,0,1-1.5,1.4,3.63,3.63,0,0,1-1.7.7,11.52,11.52,0,0,1,2.1.6,5.71,5.71,0,0,1,2.1,1.3A5.46,5.46,0,0,1,39,31a8.18,8.18,0,0,1,.7,3.4,8.43,8.43,0,0,1-1,4.4A8.7,8.7,0,0,1,36,41.5a11.26,11.26,0,0,1-3.9,1.4,35.73,35.73,0,0,1-4.7.4c-1.3,0-2.5,0-3.7-.1s-2.6-.2-4.2-.4l-.1-29.7ZM27.2,25a11.08,11.08,0,0,0,1.9-.2,2.63,2.63,0,0,0,1.5-.7,2.68,2.68,0,0,0,1-1.3,5.44,5.44,0,0,0,.4-2,3.58,3.58,0,0,0-.4-1.9,4.26,4.26,0,0,0-1.1-1.2,4.71,4.71,0,0,0-1.5-.6,9.7,9.7,0,0,0-1.7-.1,10.32,10.32,0,0,0-1.9.1V25ZM25.4,38.1a5.28,5.28,0,0,0,1.3.1h1.4a11,11,0,0,0,1.8-.2,6.36,6.36,0,0,0,1.8-.6,5.71,5.71,0,0,0,1.4-1.3,3.79,3.79,0,0,0,.5-2.2,4.38,4.38,0,0,0-.4-2.1A4.07,4.07,0,0,0,32,30.4a4.84,4.84,0,0,0-1.8-.7,16.41,16.41,0,0,0-2.3-.2H25.4Z" fill="#fff"/>
</svg>
