<?xml version="1.0" encoding="UTF-8"?>
<svg viewBox="0 0 22.23 12.76" xmlns="http://www.w3.org/2000/svg">
<rect width="22.23" height="12.76" rx="3.44" fill="#5b7e96"/>
<path d="M7.94,4.43,7,4.5a1.77,1.77,0,0,0-.35-.79,1.2,1.2,0,0,0-.91-.39A1.22,1.22,0,0,0,5,3.57a2.14,2.14,0,0,0-.68.92,4.85,4.85,0,0,0-.26,1.73,2.08,2.08,0,0,1,.81-.75,2.18,2.18,0,0,1,1-.25,2.07,2.07,0,0,1,1.56.68,2.39,2.39,0,0,1,.64,1.74A2.91,2.91,0,0,1,7.77,9a2.26,2.26,0,0,1-.83.93,2.46,2.46,0,0,1-1.21.32A2.33,2.33,0,0,1,3.86,9.4a4.29,4.29,0,0,1-.72-2.78,5,5,0,0,1,.8-3.15,2.31,2.31,0,0,1,1.88-.85,2.1,2.1,0,0,1,1.44.49A2.1,2.1,0,0,1,7.94,4.43ZM4.19,7.65a2,2,0,0,0,.21.91,1.53,1.53,0,0,0,.6.66,1.46,1.46,0,0,0,.76.22,1.28,1.28,0,0,0,1-.47A1.81,1.81,0,0,0,7.14,7.7a1.75,1.75,0,0,0-.42-1.22,1.32,1.32,0,0,0-1-.45,1.41,1.41,0,0,0-1,.45A1.62,1.62,0,0,0,4.19,7.65Z" fill="#fff"/>
<path d="M8.72,6.39A6.74,6.74,0,0,1,9,4.25,2.55,2.55,0,0,1,9.81,3a2,2,0,0,1,1.35-.44,2.29,2.29,0,0,1,1.06.24,1.94,1.94,0,0,1,.75.7,3.73,3.73,0,0,1,.46,1.11,7.54,7.54,0,0,1,.17,1.77,6.9,6.9,0,0,1-.27,2.12,2.69,2.69,0,0,1-.81,1.25,2.09,2.09,0,0,1-1.36.44,2,2,0,0,1-1.7-.78A4.87,4.87,0,0,1,8.72,6.39Zm.95,0a4.66,4.66,0,0,0,.43,2.44,1.23,1.23,0,0,0,1.68.44,1.32,1.32,0,0,0,.44-.44,4.66,4.66,0,0,0,.43-2.44,4.75,4.75,0,0,0-.43-2.46,1.26,1.26,0,0,0-1.07-.6,1.21,1.21,0,0,0-1,.53A4.71,4.71,0,0,0,9.67,6.39Z" fill="#fff"/>
<path d="M19.09,9.19v.88H14.15a1.54,1.54,0,0,1,.11-.64,3.64,3.64,0,0,1,.6-1,9.85,9.85,0,0,1,1.2-1.13,10.35,10.35,0,0,0,1.65-1.59,1.92,1.92,0,0,0,.42-1.1,1.22,1.22,0,0,0-.38-.92,1.41,1.41,0,0,0-1-.37,1.44,1.44,0,0,0-1.06.39,1.51,1.51,0,0,0-.4,1.11l-.95-.1a2.35,2.35,0,0,1,.73-1.61,2.49,2.49,0,0,1,1.7-.55,2.41,2.41,0,0,1,1.7.59,2,2,0,0,1,.63,1.48,2.23,2.23,0,0,1-.18.88,3.59,3.59,0,0,1-.61.92,17.62,17.62,0,0,1-1.42,1.31c-.55.46-.9.78-1.06.94a3.14,3.14,0,0,0-.38.5Z" fill="#fff"/>
</svg>
