<?xml version="1.0" encoding="UTF-8"?>
<svg viewBox="0 0 19.38 19.38" xmlns="http://www.w3.org/2000/svg">
<path d="M19.38,9.74a9.71,9.71,0,1,1,0-.06v.06" fill="#d35098"/>
<path d="M12.37,13a6.86,6.86,0,0,1,.32.86,6.56,6.56,0,0,1,.19.88,7.42,7.42,0,0,1-1.4.38,9.91,9.91,0,0,1-1.33.09,5.83,5.83,0,0,1-2.22-.41,4.46,4.46,0,0,1-1.6-1.15,4.7,4.7,0,0,1-1-1.75A7.25,7.25,0,0,1,5,9.74a6.9,6.9,0,0,1,.34-2.21,5.33,5.33,0,0,1,1-1.79A4.6,4.6,0,0,1,8,4.57a5.33,5.33,0,0,1,2.16-.42,9.5,9.5,0,0,1,1.31.09,6.54,6.54,0,0,1,1.31.37,3.28,3.28,0,0,1-.18.88c-.1.28-.21.56-.33.85a6,6,0,0,0-.92-.25,4.77,4.77,0,0,0-1-.08A2.66,2.66,0,0,0,8.11,7a4.25,4.25,0,0,0-.73,2.79q0,3.63,3.08,3.63a5.61,5.61,0,0,0,1-.07A6,6,0,0,0,12.37,13Z" fill="#fff"/>
</svg>
