<?xml version="1.0" encoding="UTF-8"?><svg id="d" xmlns="http://www.w3.org/2000/svg" viewBox="0 0 42.69 32.02"><rect width="42.69" height="32.02" fill="#18bbee" stroke-width="0"/><path d="m1.96,10.47h5.44c1.12-.07,2.22.3,3.06,1.04.54.52.85,1.24.84,2,.04,1.07-.55,2.06-1.51,2.53,1.36.52,2.2,1.3,2.2,2.88v.04c0,2.14-1.75,3.21-4.39,3.21H1.96v-11.69Zm6.78,3.46c0-.75-.6-1.2-1.69-1.2h-2.58v2.48h2.38c1.14,0,1.86-.36,1.86-1.23l.03-.04Zm-1.29,3.42h-3.01v2.58h3.09c1.14,0,1.82-.4,1.82-1.27,0-.82-.58-1.3-1.91-1.3Z" fill="#fff" stroke-width="0"/><path d="m18.07,10.39h2.38l5.02,11.8h-2.7l-1.08-2.61h-4.95l-1.07,2.63h-2.63l5.03-11.81Zm2.7,6.93l-1.56-3.76-1.55,3.76h3.11Z" fill="#fff" stroke-width="0"/><path d="m28.51,12.85h-3.56v-2.38h9.69v2.38h-3.55v9.34h-2.58v-9.34Z" fill="#fff" stroke-width="0"/><path d="m35.58,15.56l1.04-.99c.39.51,1,.82,1.65.82.47.06.91-.28.96-.75,0-.03,0-.06,0-.08h0c0-.56-.5-.87-1.34-.87h-.62l-.23-.96,1.63-1.64h-2.68v-1.3h4.62v1.13l-1.73,1.65c1.03.02,1.85.88,1.84,1.91h0c0,1.25-1.01,2.26-2.26,2.26h-.21c-1.02.04-2-.4-2.66-1.18Z" fill="#fff" stroke-width="0"/></svg>