<?xml version="1.0" encoding="UTF-8"?>
<svg viewBox="0 0 22.23 12.77" xmlns="http://www.w3.org/2000/svg">
<rect width="22.23" height="12.77" rx="3.44" fill="#0878be"/>
<path d="M2.91,3.58V2.7H7.74v.71a10.32,10.32,0,0,0-1.41,2A12.23,12.23,0,0,0,5.25,8a10.24,10.24,0,0,0-.36,2.05H4a9.42,9.42,0,0,1,.3-2.11,11,11,0,0,1,1-2.41A10,10,0,0,1,6.57,3.58Z" fill="#fff"/>
<path d="M8.65,6.38a7,7,0,0,1,.27-2.13A2.74,2.74,0,0,1,9.73,3a2,2,0,0,1,1.36-.44,2.13,2.13,0,0,1,1.05.24,2.19,2.19,0,0,1,.75.7,3.48,3.48,0,0,1,.46,1.11,7,7,0,0,1,.17,1.76,7,7,0,0,1-.27,2.13,2.78,2.78,0,0,1-.8,1.25,2.09,2.09,0,0,1-1.36.44,2,2,0,0,1-1.7-.78A4.9,4.9,0,0,1,8.65,6.38Zm.94,0A4.8,4.8,0,0,0,10,8.83a1.23,1.23,0,0,0,1.68.45,1.21,1.21,0,0,0,.45-.45,4.7,4.7,0,0,0,.43-2.45,4.7,4.7,0,0,0-.43-2.45,1.28,1.28,0,0,0-1.07-.6,1.16,1.16,0,0,0-1,.53A4.67,4.67,0,0,0,9.59,6.38Z" fill="#fff"/>
<path d="M17.4,10.07V8.28H14.15V7.44L17.56,2.6h.75V7.44h1v.84h-1v1.79Zm0-2.63V4.07L15.06,7.44Z" fill="#fff"/>
</svg>
