<?xml version="1.0" encoding="UTF-8"?>
<svg viewBox="0 0 22.23 12.77" xmlns="http://www.w3.org/2000/svg">
<rect width="22.23" height="12.77" rx="3.44" fill="#efb600"/>
<path d="M3.17,3.58V2.7H8v.71a10.32,10.32,0,0,0-1.41,2A12.23,12.23,0,0,0,5.51,8a10.24,10.24,0,0,0-.36,2.05H4.21a9,9,0,0,1,.35-2.13,11,11,0,0,1,1-2.41A9.9,9.9,0,0,1,6.83,3.58Z" fill="#fff"/>
<path d="M12.1,10.07h-.91V4.22a4.54,4.54,0,0,1-.87.64,7,7,0,0,1-1,.47V4.44a6,6,0,0,0,1.35-.87,3.56,3.56,0,0,0,.81-1h.59Z" fill="#fff"/>
<path d="M14.19,6.38a7,7,0,0,1,.27-2.13A2.64,2.64,0,0,1,15.28,3a2,2,0,0,1,1.35-.44,2.13,2.13,0,0,1,1.05.24,1.87,1.87,0,0,1,.75.7,3.51,3.51,0,0,1,.47,1.11,7.45,7.45,0,0,1,.17,1.76,7,7,0,0,1-.28,2.13A2.66,2.66,0,0,1,18,9.76a2.09,2.09,0,0,1-1.36.44,2,2,0,0,1-1.7-.78A4.92,4.92,0,0,1,14.19,6.38Zm1,0a4.7,4.7,0,0,0,.43,2.45,1.23,1.23,0,0,0,1.68.44,1.32,1.32,0,0,0,.44-.44,4.7,4.7,0,0,0,.43-2.45,4.7,4.7,0,0,0-.43-2.45,1.26,1.26,0,0,0-1.07-.6,1.16,1.16,0,0,0-1,.53,4.69,4.69,0,0,0-.53,2.52Z" fill="#fff"/>
</svg>
