<?xml version="1.0" encoding="UTF-8"?><svg id="a" xmlns="http://www.w3.org/2000/svg" viewBox="0 0 42.47 31.86"><rect width="42.47" height="31.86" fill="#0c324c" stroke-width="0"/><rect x="22.03" y="13.93" width="18.56" height="16.11" fill="#fff" stroke-width="0"/><path d="m11.33,28.85c2.45,0,4.59-1.29,5.8-3.23-.7.49-1.53.81-2.44.86-2.59.14-4.81-1.84-4.94-4.43-.14-2.59,1.84-4.8,4.43-4.94.88-.05,1.71.17,2.44.55-1.26-1.54-3.15-2.54-5.29-2.54-3.79,0-6.87,3.07-6.87,6.87s3.07,6.87,6.87,6.87Z" fill="#fff" stroke-width="0"/><path d="m15.95,10.59v-6.5h.92l2.09,3.29c.48.76.86,1.45,1.17,2.11h.02c-.08-.88-.1-1.67-.1-2.68v-2.72h.79v6.5h-.85l-2.07-3.3c-.45-.72-.89-1.47-1.22-2.17h-.03c.05.83.07,1.61.07,2.69v2.78h-.79Z" fill="#fff" stroke-width="0"/><path d="m23.13,4.09v6.5h-.84v-6.5h.84Z" fill="#fff" stroke-width="0"/><path d="m29.55,10.3c-.38.14-1.12.36-2,.36-.98,0-1.79-.25-2.43-.86-.56-.54-.91-1.41-.91-2.42,0-1.94,1.34-3.36,3.52-3.36.75,0,1.34.16,1.62.3l-.2.68c-.35-.15-.78-.28-1.44-.28-1.58,0-2.61.98-2.61,2.61s.99,2.62,2.51,2.62c.55,0,.93-.08,1.12-.17v-1.94h-1.32v-.68h2.14v3.13Z" fill="#fff" stroke-width="0"/><path d="m31.66,4.09v2.72h3.15v-2.72h.85v6.5h-.85v-3.05h-3.15v3.05h-.84v-6.5h.84Z" fill="#fff" stroke-width="0"/><path d="m38.35,4.8h-1.98v-.71h4.81v.71h-1.99v5.79h-.85v-5.79Z" fill="#fff" stroke-width="0"/><path d="m15.21,4.63c0,.13-.07.37-.45,1.21-.04.1-.13.13-.21.13-.14,0-.32-.1-.32-.26,0-.04,0-.07.03-.11l.2-.48c-.18-.09-.31-.28-.31-.49,0-.3.23-.54.53-.54s.53.24.53.53Z" fill="#fff" stroke-width="0"/><path d="m2.23,5.83v.68h.96c.16,0,.26.17.26.35s-.1.35-.26.35h-.96v3.23c0,.18-.22.3-.48.3s-.45-.13-.45-.3v-4.56c0-.98.62-1.87,1.93-1.87.53,0,.5.04.5.39,0,.13-.05.42-.22.42-.14,0-.12,0-.27,0-.78-.02-1,.45-1,1.02Z" fill="#fff" stroke-width="0"/><path d="m5.19,4.28v6.15c0,.15-.21.31-.47.31-.28,0-.47-.16-.47-.31v-6.15c0-.18.19-.3.47-.3.26,0,.47.13.47.3Z" fill="#fff" stroke-width="0"/><path d="m9.83,8c0,.74-.41.77-.81.77h-1.89v.21c0,.6.47.98,1.16.98.64,0,.85-.34,1.09-.34.22,0,.37.26.37.42,0,.27-.58.68-1.49.68-1.22,0-2.08-.72-2.08-1.78v-.85c0-.94.83-1.74,1.86-1.74.96,0,1.78.68,1.78,1.65Zm-1.22.19c.26,0,.33-.05.33-.27,0-.47-.39-.86-.9-.86s-.91.35-.91.84v.29h1.49Z" fill="#fff" stroke-width="0"/><path d="m10.34,10.08l1.11-1.59-1.06-1.5s-.06-.1-.06-.16c0-.22.37-.47.62-.47.05,0,.17.02.22.11l.91,1.43.91-1.42c.05-.09.16-.12.23-.12.22,0,.61.25.61.47,0,.05-.02.1-.06.16l-1.06,1.51,1.12,1.58s.06.11.06.17c0,.21-.35.47-.6.47-.08,0-.19-.03-.24-.11l-.97-1.48-.97,1.48c-.05.07-.17.11-.25.11-.21,0-.59-.24-.59-.47,0-.06.03-.13.06-.17Z" fill="#fff" stroke-width="0"/><path d="m28.68,28.01l-2-5.22h-.06l.08,5.22h-2.24v-9.33h2.58l2.08,5.18h.05l-.06-5.18h2.14v9.33h-2.56Z" fill="#0c324c" stroke-width="0"/><path d="m35.77,28.01v-8.35l-1.7,1.28-1.14-1.98,3.1-2.27h2.24v11.33h-2.51Z" fill="#0c324c" stroke-width="0"/></svg>